<?xml version="1.0" encoding="UTF-8" standalone="no"?>
<!-- Created with Inkscape (http://www.inkscape.org/) -->

<svg
   width="197.97948mm"
   height="59.57687mm"
   viewBox="0 0 197.97948 59.57687"
   version="1.1"
   id="svg5"
   xml:space="preserve"
   sodipodi:docname="all-icons-2024.svg"
   inkscape:version="1.2.2 (732a01da63, 2022-12-09)"
   xmlns:inkscape="http://www.inkscape.org/namespaces/inkscape"
   xmlns:sodipodi="http://sodipodi.sourceforge.net/DTD/sodipodi-0.dtd"
   xmlns="http://www.w3.org/2000/svg"
   xmlns:svg="http://www.w3.org/2000/svg"><sodipodi:namedview
     id="namedview7"
     pagecolor="#505050"
     bordercolor="#eeeeee"
     borderopacity="1"
     inkscape:showpageshadow="0"
     inkscape:pageopacity="0"
     inkscape:pagecheckerboard="0"
     inkscape:deskcolor="#505050"
     inkscape:document-units="mm"
     showgrid="false"
     inkscape:zoom="0.72782688"
     inkscape:cx="309.13945"
     inkscape:cy="834.67651"
     inkscape:window-width="1920"
     inkscape:window-height="992"
     inkscape:window-x="-8"
     inkscape:window-y="-8"
     inkscape:window-maximized="1"
     inkscape:current-layer="layer1" /><defs
     id="defs2"><rect
       x="54.891533"
       y="225.88109"
       width="107.84001"
       height="116.58379"
       id="rect2567" /><linearGradient
       id="linearGradient972"
       inkscape:swatch="solid"><stop
         style="stop-color:#000000;stop-opacity:1;"
         offset="0"
         id="stop970" /></linearGradient><style
       id="style183">.cls-1{fill:#9d9795;}.cls-2{fill:#cfb991;}</style></defs><g
     inkscape:label="Layer 1"
     inkscape:groupmode="layer"
     id="layer1"
     transform="translate(-8.300029,61.777708)"><path
       id="rect1303-0"
       style="fill:none;stroke:#000000;stroke-width:9.51999;stroke-linejoin:round"
       d="m 35.085092,-57.015361 43.33884,1.060054 c 4.56107,0.111562 8.29185,3.385698 8.401,7.946828 l 0.39629,16.560683 c 0.10914,4.56113 -3.50023,8.36161 -8.0599,8.52052 l -43.33884,1.51046 c -4.55966,0.15892 -8.30651,-3.38537 -8.401,-7.94683 l -0.39628,-19.131188 c -0.0945,-4.561457 3.49882,-8.63209 8.05989,-8.520527 z"
       sodipodi:nodetypes="sssssssss"
       inkscape:export-filename="cs-logo.png"
       inkscape:export-xdpi="96"
       inkscape:export-ydpi="96" /><path
       id="rect1307-5"
       style="fill:#000000;fill-opacity:1;fill-rule:nonzero;stroke:none;stroke-width:2.20722;stroke-linejoin:round;stroke-dasharray:none;stroke-opacity:1"
       d="m 84.235422,-17.977016 c -0.11004,-6.6e-4 -0.21935,7.5e-4 -0.32866,0.005 l -51.77256,2.09133 c -3.49809,0.14128 -5.21576,2.85011 -3.85092,6.0740502 l 0.86144,2.03554 c 1.36484,3.22395 5.28018,5.70579 8.77828,5.56451 l 51.77255,-2.09133 c 3.4981,-0.14128 5.21525,-2.85011 3.85041,-6.0740602 l -0.86145,-2.03553 c -1.32218,-3.1232 -5.03788,-5.54951 -8.44909,-5.56969 z m -0.37414,2.02985 c 0.47172,-0.0195 0.85111,0.34476 0.85111,0.81648 v 1.02837 c 0,0.47171 -0.37939,0.86675 -0.85111,0.88625 l -2.60294,0.108 c -0.47172,0.0195 -0.85163,-0.34425 -0.85163,-0.81597 v -1.02837 c 0,-0.47171 0.37991,-0.86726 0.85163,-0.88676 z m -5.95313,0.29145 c 0.47173,-0.0195 0.85163,0.34476 0.85163,0.81649 v 1.02836 c 0,0.47172 -0.3799,0.86675 -0.85162,0.88625 l -2.60243,0.10749 c -0.47172,0.0195 -0.85163,-0.34426 -0.85163,-0.81598 v -1.02835 c 0,-0.47173 0.37991,-0.86727 0.85163,-0.88677 z m -6.36136,0.37672 c 0.47172,-0.0195 0.85111,0.34477 0.85111,0.81649 v 1.02784 c 0,0.47173 -0.37939,0.86727 -0.85111,0.88677 l -2.60294,0.10749 c -0.47173,0.0195 -0.85112,-0.34477 -0.85112,-0.81649 l 1e-5,-1.02784 c -1e-5,-0.47172 0.37939,-0.86727 0.85111,-0.88677 z m -5.95313,0.29146 c 0.47172,-0.0195 0.85163,0.34477 0.85163,0.81648 v 1.02785 c 0,0.47172 -0.37991,0.86727 -0.85163,0.88677 l -2.60242,0.10748 c -0.47172,0.0195 -0.85163,-0.34476 -0.85163,-0.81648 v -1.02784 c 0,-0.47172 0.3799,-0.86728 0.85163,-0.88677 z m -5.99808,0.293 c 0.47172,-0.0195 0.85163,0.34477 0.85163,0.81649 v 1.02784 c 0,0.47172 -0.37991,0.86727 -0.85163,0.88677 l -2.60242,0.10749 c -0.47172,0.0195 -0.85163,-0.34425 -0.85163,-0.81598 v -1.02784 c 0,-0.47172 0.3799,-0.86778 0.85162,-0.88728 z m -5.8322,0.20257 c 0.47172,-0.0195 0.85162,0.34477 0.85163,0.81649 l -1e-5,1.02784 c 0,0.47172 -0.3799,0.86727 -0.85162,0.88677 l -2.60243,0.10749 c -0.47172,0.0195 -0.85163,-0.34477 -0.85163,-0.81649 v -1.02784 c 0,-0.47172 0.37991,-0.86727 0.85163,-0.88677 z m -5.95261,0.29146 c 0.47172,-0.0195 0.85163,0.34373 0.85162,0.81545 l 1e-5,1.02836 c 0,0.47173 -0.37991,0.86779 -0.85163,0.88729 l -2.60294,0.10749 c -0.47173,0.0195 -0.85111,-0.34477 -0.85112,-0.81649 l 10e-6,-1.02836 c 0,-0.47173 0.37939,-0.86675 0.85111,-0.88625 z m -5.99809,0.293 c 0.47173,-0.0195 0.85112,0.34426 0.85112,0.81598 l -10e-6,1.02835 c 10e-6,0.47172 -0.37939,0.86727 -0.85111,0.88677 l -2.60294,0.10749 c -0.47172,0.0195 -0.85111,-0.34477 -0.85111,-0.81649 v -1.02836 c 0,-0.47172 0.37939,-0.86675 0.85111,-0.88625 z m 40.12572,1.41077 c 0.47172,-0.0195 0.85163,0.34477 0.85163,0.81649 v 1.15651 c 0,0.47172 -0.37991,0.8672702 -0.85163,0.8867702 l -5.39812,0.22324 c -0.47172,0.0195 -0.85111,-0.34476 -0.85111,-0.8164802 v -1.15652 c 0,-0.47172 0.37939,-0.86727 0.85111,-0.88677 z m -9.15706,0.49196 c 0.47172,-0.0195 0.85163,0.34424 0.85163,0.81597 l -10e-6,1.02836 c 0,0.4717202 -0.3799,0.8672702 -0.85162,0.8867702 l -2.60243,0.10749 c -0.47172,0.0195 -0.85163,-0.34477 -0.85163,-0.81649 v -1.0283602 c 0,-0.47173 0.37991,-0.86675 0.85163,-0.88625 z m -5.95261,0.29145 c 0.47172,-0.0195 0.85163,0.34426 0.85163,0.81598 v 1.0283602 c 0,0.47172 -0.37991,0.86726 -0.85163,0.88676 l -2.60242,0.10749 c -0.47173,0.0195 -0.85163,-0.34477 -0.85163,-0.81649 v -1.0283502 c 0,-0.47172 0.3799,-0.86676 0.85163,-0.88626 z m -5.99808,0.29353 c 0.47172,-0.0195 0.85162,0.34424 0.85162,0.81597 v 1.0283502 c 0,0.47173 -0.37991,0.86727 -0.85163,0.88677 l -2.60294,0.10749 c -0.47172,0.0195 -0.85111,-0.34477 -0.85111,-0.81648 v -1.0283702 c 0,-0.11793 0.0237,-0.23114 0.0667,-0.33486 0.005,-0.0129 0.0111,-0.0256 0.0171,-0.0382 0.0835,-0.17724 0.22412,-0.32375 0.39791,-0.41444 0.0124,-0.007 0.025,-0.0126 0.0377,-0.0186 0.10194,-0.0472 0.21383,-0.0751 0.33177,-0.0801 z m -5.83221,0.20153 c 0.47173,-0.0195 0.85111,0.34477 0.85111,0.81649 v 1.0283602 c 0,0.47172 -0.37938,0.86728 -0.85111,0.88677 l -2.60294,0.10749 c -0.47172,0.0195 -0.85111,-0.34477 -0.85111,-0.81649 v -1.0283602 c 0,-0.47172 0.37939,-0.86727 0.85111,-0.88677 z m -5.95312,0.29146 c 0.47172,-0.0195 0.85163,0.34477 0.85163,0.81649 v 1.0283602 c 0,0.47172 -0.37991,0.86727 -0.85163,0.88677 l -2.60243,0.10748 c -0.47172,0.0195 -0.85162,-0.34477 -0.85163,-0.81649 l 10e-6,-1.02835 c 0,-0.4717202 0.3799,-0.8672702 0.85162,-0.8867702 z m -5.99809,0.293 c 0.47172,-0.0195 0.85163,0.34477 0.85163,0.8164902 v 1.02836 c 0,0.47172 -0.37991,0.86675 -0.85163,0.88625 l -2.60242,0.10749 c -0.47172,0.0195 -0.85163,-0.34374 -0.85163,-0.81545 v -1.02836 c 0,-0.4717302 0.37991,-0.8677902 0.85163,-0.8872902 z m 40.50348,1.4784702 c 0.47172,-0.0195 0.85163,0.34477 0.85162,0.81648 l 1e-5,1.02785 c -1e-5,0.47171 -0.37991,0.86727 -0.85163,0.88677 l -2.60243,0.10748 c -0.47172,0.0195 -0.85162,-0.34476 -0.85163,-0.81648 v -1.02785 c 10e-6,-0.47171 0.37991,-0.86727 0.85163,-0.88677 z m -5.95261,0.29146 c 0.47172,-0.0195 0.85162,0.34424 0.85163,0.81596 l -1e-5,1.02836 c 0,0.47173 -0.3799,0.86728 -0.85162,0.88677 l -2.60243,0.10749 c -0.47172,0.0195 -0.85163,-0.34476 -0.85162,-0.81648 v -1.02837 c -1e-5,-0.47172 0.3799,-0.86675 0.85162,-0.88625 z m -6.36137,0.37671 c 0.47172,-0.0195 0.85111,0.34426 0.85111,0.81598 v 1.02835 c 0,0.47173 -0.37939,0.86727 -0.85111,0.88677 l -2.60294,0.10749 c -0.47172,0.0195 -0.85163,-0.34477 -0.85163,-0.81649 v -1.02836 c 0,-0.47172 0.37991,-0.86675 0.85163,-0.88625 z m -6.28024,0.31109 c 0.47172,-0.0195 0.85111,0.34478 0.85111,0.8165 v 1.15651 c 0,0.47172 -0.37939,0.86727 -0.85111,0.88677 l -14.1056,0.58239 c -0.47172,0.0195 -0.85163,-0.34425 -0.85162,-0.81596 v -1.15653 c -10e-6,-0.47172 0.3799,-0.86726 0.85162,-0.88676 z m -17.45578,0.76637 c 0.47172,-0.0195 0.85111,0.34477 0.85111,0.81648 v 1.02837 c 0,0.47172 -0.37939,0.86675 -0.85111,0.88625 l -2.60294,0.10748 c -0.47173,0.0195 -0.85111,-0.34425 -0.85111,-0.81597 v -1.02836 c 0,-0.47172 0.37939,-0.86726 0.85111,-0.88676 z m -5.99808,0.29352 c 0.47172,-0.0195 0.85111,0.34476 0.85111,0.81649 v 1.02836 c 0,0.47172 -0.37939,0.86675 -0.85112,0.88625 l -2.60293,0.10749 c -0.47172,0.0195 -0.85163,-0.34426 -0.85163,-0.81598 v -1.02836 c 0,-0.47173 0.3799,-0.86726 0.85162,-0.88676 z" /><g
       aria-label="&gt;_"
       transform="matrix(0.26458333,0,0,0.26458333,19.658012,-116.25122)"
       id="text2565-8"
       style="font-size:74.6667px;font-family:Consolas;-inkscape-font-specification:'Consolas, Normal';white-space:pre;shape-inside:url(#rect2567);fill:#ffffff;stroke-width:4.53543;stroke-linejoin:round"><path
         d="m 62.51042,254.39129 3.937502,-4.04688 24.500012,20.45314 -24.500012,20.45313 -3.937502,-4.01042 19.869801,-16.3698 z"
         style="fill:#000000;stroke:#000000"
         id="path6894-2"
         sodipodi:nodetypes="ccccccc" /><path
         d="m 134.22251,303.84395 -38.623272,1.94306 v -5.25 l 38.795022,-0.91259 z"
         style="fill:#000000;stroke:#000000"
         id="path6896-6"
         sodipodi:nodetypes="ccccc" /></g><path
       style="fill:#000000;fill-opacity:1;fill-rule:nonzero;stroke:#000000;stroke-width:0;stroke-linejoin:round;stroke-dasharray:none;stroke-opacity:1"
       d="m 21.457372,-51.731403 c -16.7083201,11.310247 -12.8525501,3.470188 -12.5955001,11.310247 0.25705,7.84006 0,22.49197 0,22.49197 H 28.654802 l 0.12852,-0.12853 c 0,0 -6.29775,-2.05641 -6.68332,-11.18172 -0.38558,-9.12531 -0.64263,-22.491967 -0.64263,-22.491967 z"
       id="path4951-9"
       sodipodi:nodetypes="cscccsc" /><text
       xml:space="preserve"
       style="font-weight:600;font-size:22.5778px;font-family:'FiraCode Nerd Font';-inkscape-font-specification:'FiraCode Nerd Font Semi-Bold';text-align:center;text-anchor:middle;fill:#000000;stroke:#000000;stroke-width:1.2;stroke-linejoin:round"
       x="151.22644"
       y="-39.260708"
       id="text517"><tspan
         sodipodi:role="line"
         id="tspan515"
         style="stroke-width:1.2"
         x="151.22644"
         y="-39.260708">Computer</tspan><tspan
         sodipodi:role="line"
         style="stroke-width:1.2"
         x="151.22644"
         y="-11.038457"
         id="tspan519">Science</tspan></text></g></svg>
