<?xml version="1.0" encoding="UTF-8" standalone="no"?>
<!-- Created with Inkscape (http://www.inkscape.org/) -->

<svg
   width="188.57256mm"
   height="63.531181mm"
   viewBox="0 0 188.57256 63.531181"
   version="1.1"
   id="svg5"
   xml:space="preserve"
   sodipodi:docname="all-icons-2024.svg"
   xmlns:inkscape="http://www.inkscape.org/namespaces/inkscape"
   xmlns:sodipodi="http://sodipodi.sourceforge.net/DTD/sodipodi-0.dtd"
   xmlns="http://www.w3.org/2000/svg"
   xmlns:svg="http://www.w3.org/2000/svg"><sodipodi:namedview
     id="namedview7"
     pagecolor="#505050"
     bordercolor="#eeeeee"
     borderopacity="1"
     inkscape:showpageshadow="0"
     inkscape:pageopacity="0"
     inkscape:pagecheckerboard="0"
     inkscape:deskcolor="#505050"
     inkscape:document-units="mm"
     showgrid="false"
     inkscape:zoom="2.0586053"
     inkscape:cx="254.78415"
     inkscape:cy="315.99064"
     inkscape:window-width="1920"
     inkscape:window-height="992"
     inkscape:window-x="-8"
     inkscape:window-y="-8"
     inkscape:window-maximized="1"
     inkscape:current-layer="layer1" /><defs
     id="defs2"><linearGradient
       id="linearGradient972"
       inkscape:swatch="solid"><stop
         style="stop-color:#000000;stop-opacity:1;"
         offset="0"
         id="stop970" /></linearGradient><style
       id="style183">.cls-1{fill:#9d9795;}.cls-2{fill:#cfb991;}</style></defs><g
     inkscape:label="Layer 1"
     inkscape:groupmode="layer"
     id="layer1"
     transform="translate(-7.6114756,-110.63587)"><path
       sodipodi:type="star"
       style="fill:#acb700;fill-opacity:1;fill-rule:nonzero;stroke:#000000;stroke-width:5;stroke-linejoin:round;stroke-dasharray:none;stroke-opacity:1"
       id="path5796"
       inkscape:flatsided="false"
       sodipodi:sides="5"
       sodipodi:cx="23.083843"
       sodipodi:cy="120.69033"
       sodipodi:r1="28.632727"
       sodipodi:r2="14.171912"
       sodipodi:arg1="0.93090573"
       sodipodi:arg2="1.5592243"
       inkscape:rounded="0"
       inkscape:randomized="0"
       d="m 40.180664,143.65839 -16.932827,-8.7971 -16.7247078,9.1866 3.134004,-18.82252 -13.9051953,-13.06733 18.8697481,-2.83587 8.130825,-17.262649 8.528141,17.069869 18.930322,2.39842 -13.599067,13.38562 z"
       inkscape:transform-center-x="0.1217735"
       inkscape:transform-center-y="-1.2023043"
       transform="matrix(0.72487292,0,0,0.72487292,12.502748,47.54242)" /><path
       sodipodi:type="star"
       style="fill:#acb700;fill-opacity:1;fill-rule:nonzero;stroke:#000000;stroke-width:5;stroke-linejoin:round;stroke-dasharray:none;stroke-opacity:1"
       id="path5796-0"
       inkscape:flatsided="false"
       sodipodi:sides="5"
       sodipodi:cx="23.083843"
       sodipodi:cy="120.69033"
       sodipodi:r1="28.632727"
       sodipodi:r2="14.171912"
       sodipodi:arg1="0.93090573"
       sodipodi:arg2="1.5592243"
       inkscape:rounded="0"
       inkscape:randomized="0"
       d="m 40.180664,143.65839 -16.932827,-8.7971 -16.7247078,9.1866 3.134004,-18.82252 -13.9051953,-13.06733 18.8697481,-2.83587 8.130825,-17.262649 8.528141,17.069869 18.930322,2.39842 -13.599067,13.38562 z"
       inkscape:transform-center-x="0.1217735"
       inkscape:transform-center-y="-1.2023043"
       transform="matrix(0.72487292,0,0,0.72487292,61.135733,46.930922)" /><path
       sodipodi:type="star"
       style="fill:#acb700;fill-opacity:1;fill-rule:nonzero;stroke:#000000;stroke-width:5;stroke-linejoin:round;stroke-dasharray:none;stroke-opacity:1"
       id="path5796-4"
       inkscape:flatsided="false"
       sodipodi:sides="5"
       sodipodi:cx="23.083843"
       sodipodi:cy="120.69033"
       sodipodi:r1="28.632727"
       sodipodi:r2="14.171912"
       sodipodi:arg1="0.93090573"
       sodipodi:arg2="1.5592243"
       inkscape:rounded="0"
       inkscape:randomized="0"
       d="m 40.180664,143.65839 -16.932827,-8.7971 -16.7247078,9.1866 3.134004,-18.82252 -13.9051953,-13.06733 18.8697481,-2.83587 8.130825,-17.262649 8.528141,17.069869 18.930322,2.39842 -13.599067,13.38562 z"
       inkscape:transform-center-x="0.1217735"
       inkscape:transform-center-y="-1.2023043"
       transform="matrix(0.72487292,0,0,0.72487292,109.34249,46.327859)" /><path
       id="path5796-0-6-3"
       style="fill:#acb700;stroke:none;stroke-width:3.62436;stroke-linejoin:round"
       inkscape:transform-center-x="0.1217735"
       inkscape:transform-center-y="-1.2023043"
       d="m 170.14108,146.14232 -7.76099,3.93268 2.27175,-13.64394 -10.0795,-9.47215 13.67817,-2.05564 c 1.2717,1.15122 1.35948,-4.18455 1.62671,-1.50663 0.6032,6.04463 0.25126,21.65765 0.26386,22.74568 z"
       sodipodi:nodetypes="cccccsc" /><path
       sodipodi:type="star"
       style="fill:none;fill-opacity:1;fill-rule:nonzero;stroke:#000000;stroke-width:5;stroke-linejoin:round;stroke-dasharray:none;stroke-opacity:1"
       id="path5796-0-6"
       inkscape:flatsided="false"
       sodipodi:sides="5"
       sodipodi:cx="23.083843"
       sodipodi:cy="120.69033"
       sodipodi:r1="28.632727"
       sodipodi:r2="14.171912"
       sodipodi:arg1="0.93090573"
       sodipodi:arg2="1.5592243"
       inkscape:rounded="0"
       inkscape:randomized="0"
       d="m 40.180664,143.65839 -16.932827,-8.7971 -16.7247078,9.1866 3.134004,-18.82252 -13.9051953,-13.06733 18.8697481,-2.83587 8.130825,-17.262649 8.528141,17.069869 18.930322,2.39842 -13.599067,13.38562 z"
       inkscape:transform-center-x="0.1217735"
       inkscape:transform-center-y="-1.2023043"
       transform="matrix(0.72487292,0,0,0.72487292,157.97548,45.716361)" /><g
       aria-label="GPA: 3.21"
       transform="translate(85.246634,10.72399)"
       id="text6808"
       style="font-weight:600;font-size:22.5778px;font-family:'FiraCode Nerd Font';-inkscape-font-specification:'FiraCode Nerd Font Semi-Bold';text-align:center;text-anchor:middle;white-space:pre;inline-size:163.81;fill:none;stroke-width:1.2;stroke-linejoin:round"><path
         d="m -39.809746,162.84306 q -3.218783,0 -4.978694,-2.11884 -1.759911,-2.13041 -1.759911,-6.26389 0,-2.73249 0.984161,-4.58503 0.98416,-1.85254 2.616709,-2.79038 1.632549,-0.94943 3.577713,-0.94943 1.690441,0 2.836698,0.50945 1.146258,0.50945 2.084105,1.3894 l -1.725176,1.77149 q -0.729436,-0.64839 -1.447295,-0.961 -0.717858,-0.3242 -1.62097,-0.3242 -1.099944,0 -2.014634,0.5905 -0.914691,0.57892 -1.458874,1.88727 -0.532604,1.30836 -0.532604,3.48509 0,3.26509 0.868377,4.61976 0.879955,1.34309 2.651444,1.34309 0.659966,0 1.250463,-0.15052 0.590496,-0.15051 1.111522,-0.4284 v -4.08716 h -2.408298 l -0.324194,-2.31567 h 5.754444 v 7.83855 q -1.157836,0.6947 -2.489347,1.1231 -1.319933,0.41682 -2.975639,0.41682 z"
         style="fill:#000000;stroke:#000000"
         id="path6916" /><path
         d="m -20.172838,151.5889 q 0,1.86411 -0.798907,3.05668 -0.798907,1.181 -2.223045,1.74834 -1.41256,0.55576 -3.276676,0.55576 h -1.840959 v 5.54603 h -3.17247 v -16.01287 h 4.712392 q 3.114579,0 4.851333,1.26204 1.748332,1.26204 1.748332,3.84402 z m -3.288254,0.0232 q 0,-1.48203 -0.84522,-2.14199 -0.845221,-0.67155 -2.350407,-0.67155 h -1.655706 v 5.80076 h 1.748332 q 1.41256,0 2.257781,-0.67154 0.84522,-0.68313 0.84522,-2.31568 z"
         style="fill:#000000;stroke:#000000"
         id="path6918" /><path
         d="m -9.9259803,158.82537 h -5.2681537 l -0.995739,3.67034 h -3.276675 l 5.013429,-16.01287 h 3.890329 l 5.0018511,16.01287 h -3.3693025 z m -4.7008137,-2.37356 h 4.110317 l -2.049369,-7.59541 z"
         style="fill:#000000;stroke:#000000"
         id="path6920" /><path
         d="m -0.8716954,150.61632 q 0,-0.90312 0.64838813,-1.56308 0.64838812,-0.65997 1.58623527,-0.65997 0.9494254,0 1.5862352,0.65997 0.6483881,0.65996 0.6483881,1.56308 0,0.91469 -0.6483881,1.57465 -0.6368098,0.65997 -1.5862352,0.65997 -0.93784715,0 -1.58623527,-0.65997 -0.64838813,-0.65996 -0.64838813,-1.57465 z m 0,8.128 q 0,-0.90311 0.64838813,-1.5515 0.64838812,-0.65996 1.58623527,-0.65996 0.9494254,0 1.5862352,0.65996 0.6483881,0.64839 0.6483881,1.5515 0,0.92627 -0.6483881,1.58624 -0.6368098,0.65997 -1.5862352,0.65997 -0.93784715,0 -1.58623527,-0.65997 -0.64838813,-0.65997 -0.64838813,-1.58624 z"
         style="fill:#000000;stroke:#000000"
         id="path6922" /><path
         d="m 28.491047,146.13549 q 1.644127,0 2.82512,0.55576 1.180993,0.54418 1.806224,1.47045 0.625232,0.92627 0.625232,2.03779 0,1.50519 -0.903112,2.47777 -0.903112,0.96101 -2.315672,1.31994 1.05363,0.12736 1.887272,0.57891 0.84522,0.43998 1.34309,1.27362 0.497869,0.83365 0.497869,2.10727 0,1.35466 -0.729436,2.46619 -0.729437,1.11152 -2.072527,1.77148 -1.331511,0.64839 -3.160892,0.64839 -1.644127,0 -3.03353,-0.57891 -1.377825,-0.5905 -2.350407,-1.72518 l 1.794646,-1.62097 q 0.683123,0.79891 1.563078,1.16941 0.891534,0.37051 1.852538,0.37051 1.354668,0 2.165153,-0.6947 0.822064,-0.70628 0.822064,-1.9799 0,-1.42414 -0.798907,-2.01463 -0.787329,-0.60208 -2.11884,-0.60208 h -1.424138 l 0.358929,-2.17673 h 1.007317 q 1.088366,0 1.852538,-0.56734 0.77575,-0.57892 0.77575,-1.77149 0,-1.04205 -0.729437,-1.62097 -0.729436,-0.5905 -1.829381,-0.5905 -0.995738,0 -1.771489,0.37051 -0.77575,0.37051 -1.505186,1.05363 l -1.586236,-1.67886 q 2.130419,-2.04937 5.15237,-2.04937 z"
         style="fill:#000000;stroke:#000000"
         id="path6924" /><path
         d="m 40.659907,160.44634 q 0,-0.97258 0.694702,-1.67886 0.694701,-0.70628 1.69044,-0.70628 1.007318,0 1.702019,0.70628 0.694702,0.70628 0.694702,1.67886 0,0.98416 -0.694702,1.69044 -0.694701,0.70628 -1.702019,0.70628 -0.995739,0 -1.69044,-0.70628 -0.694702,-0.70628 -0.694702,-1.69044 z"
         style="fill:#000000;stroke:#000000"
         id="path6926" /><path
         d="m 56.337018,146.13549 q 1.725175,0 2.894589,0.62523 1.180993,0.61365 1.783068,1.64413 0.602074,1.03047 0.602074,2.26936 0,1.01889 -0.34735,1.99148 -0.347351,0.97258 -1.13468,2.04936 -0.77575,1.07679 -2.060948,2.38515 -1.285197,1.30835 -3.17247,2.99879 h 7.085956 l -0.335773,2.39672 H 51.404636 v -2.23462 q 2.072527,-2.00306 3.438773,-3.41562 1.377825,-1.42414 2.176732,-2.45461 0.798907,-1.03047 1.123101,-1.85254 0.335772,-0.82206 0.335772,-1.63255 0,-1.09994 -0.625231,-1.73675 -0.625232,-0.63681 -1.771489,-0.63681 -1.007318,0 -1.713598,0.39367 -0.694701,0.38208 -1.366246,1.25046 l -1.922008,-1.45888 q 0.914691,-1.21572 2.176732,-1.89885 1.262041,-0.68312 3.079844,-0.68312 z"
         style="fill:#000000;stroke:#000000"
         id="path6928" /><path
         d="m 76.379169,160.14531 v 2.3504 h -9.992124 v -2.3504 h 3.878751 v -10.58263 l -3.415616,2.11884 -1.308355,-2.11884 5.025008,-3.07984 h 2.697758 v 13.66247 z"
         style="fill:#000000;stroke:#000000"
         id="path6930" /></g></g></svg>
