<?xml version="1.0" encoding="UTF-8" standalone="no"?>
<!-- Created with Inkscape (http://www.inkscape.org/) -->

<svg
   width="190.52414mm"
   height="246.07236mm"
   viewBox="0 0 190.52414 246.07236"
   version="1.1"
   id="svg5"
   xml:space="preserve"
   xmlns="http://www.w3.org/2000/svg"
   xmlns:svg="http://www.w3.org/2000/svg"><defs
     id="defs2"><filter
       style="color-interpolation-filters:sRGB"
       id="filter26605-0"
       x="-0.082165852"
       y="-0.56541622"
       width="1.1643317"
       height="2.1308329"><feGaussianBlur
         stdDeviation="2.8863633"
         id="feGaussianBlur26607-4" /></filter><filter
       style="color-interpolation-filters:sRGB"
       id="filter26601-8"
       x="-0.062590994"
       y="-0.33481455"
       width="1.125182"
       height="1.669633"><feGaussianBlur
         stdDeviation="1.9360883"
         id="feGaussianBlur26603-3" /></filter><filter
       style="color-interpolation-filters:sRGB"
       id="filter27258"
       x="-0.055268351"
       y="-0.037804019"
       width="1.1105371"
       height="1.0756093"><feGaussianBlur
         stdDeviation="2.6365416"
         id="feGaussianBlur27260" /></filter><filter
       style="color-interpolation-filters:sRGB"
       id="filter27290"
       x="-0.031162921"
       y="-0.021315202"
       width="1.0623261"
       height="1.0426316"><feGaussianBlur
         stdDeviation="1.2140198"
         id="feGaussianBlur27288" /></filter><filter
       style="color-interpolation-filters:sRGB"
       id="filter27320"
       x="-0.076467454"
       y="-0.052304819"
       width="1.1529351"
       height="1.1046109"><feGaussianBlur
         stdDeviation="3.8875537"
         id="feGaussianBlur27318" /></filter></defs><g
     id="layer1"
     transform="translate(-386.19096,-342.92055)"><g
       id="g29140"
       transform="translate(373.67336,305.53102)"
       style="fill:#003632;fill-opacity:1;stroke:none;stroke-opacity:1"><path
         style="fill:#003632;fill-opacity:1;stroke:none;stroke-width:0.0449998;stroke-linecap:round;stroke-linejoin:round;stroke-dasharray:none;stroke-opacity:1"
         d="m 60.721681,78.367572 -0.54529,56.346388 101.241729,2.36291 1.63587,-65.798038 z"
         id="path29134" /><path
         style="fill:#003632;fill-opacity:1;stroke:none;stroke-width:4.99999;stroke-linecap:round;stroke-linejoin:round;stroke-opacity:1"
         d="M 177.41323,158.88838 C 165.4169,188.8792 165.4169,188.8792 165.4169,188.8792 l 37.62485,-1.99939 z"
         id="path29136" /><path
         style="fill:#003632;fill-opacity:1;stroke:none;stroke-width:4.99999;stroke-linecap:round;stroke-linejoin:round;stroke-opacity:1"
         d="m 38.146126,157.25252 c 11.99633,29.99082 11.99633,29.99082 11.99633,29.99082 l -37.62484,-1.99939 z"
         id="path29138" /></g><g
       id="g29146"
       transform="translate(372.40102,306.6216)"
       style="fill:#067a66;fill-opacity:1;stroke:#07ffed;stroke-opacity:0.733333"><path
         style="fill:#067a66;fill-opacity:1;stroke:#07ffed;stroke-width:3;stroke-linecap:round;stroke-linejoin:round;stroke-dasharray:none;stroke-opacity:0.733333"
         d="m 68.900991,260.85718 20.53917,3.63524 -0.36353,9.26989 -14.35924,0.18177 -17.08567,-4.54406 z"
         id="path29142" /><path
         style="fill:#067a66;fill-opacity:1;stroke:#07ffed;stroke-width:3;stroke-linecap:round;stroke-linejoin:round;stroke-dasharray:none;stroke-opacity:0.733333"
         d="m 148.92436,259.03955 -20.53917,3.63524 0.36352,9.26989 14.35924,0.18177 17.08568,-4.54406 z"
         id="path29144" /></g><g
       id="g29156"
       transform="translate(372.40102,306.6216)"
       style="fill:#06b19f;fill-opacity:1;stroke:#07ffed;stroke-opacity:1"><g
         id="g29154"
         style="fill:#06b19f;fill-opacity:1;stroke:#07ffed;stroke-opacity:1"><rect
           style="fill:#06b19f;fill-opacity:1;stroke:#07ffed;stroke-width:3;stroke-linecap:round;stroke-linejoin:round;stroke-dasharray:none;stroke-opacity:1"
           id="rect29148"
           width="47.0765"
           height="31.808443"
           x="87.804306"
           y="149.25496"
           ry="0.76141649" /><path
           style="fill:#06b19f;fill-opacity:1;stroke:#07ffed;stroke-width:3;stroke-linecap:round;stroke-linejoin:round;stroke-dasharray:none;stroke-opacity:1"
           d="m 59.812871,247.95203 9.45165,13.08689 19.81211,3.4535 10.90576,-7.81579 z"
           id="path29150" /><path
           style="fill:#06b19f;fill-opacity:1;stroke:#07ffed;stroke-width:3;stroke-linecap:round;stroke-linejoin:round;stroke-dasharray:none;stroke-opacity:1"
           d="m 158.01248,246.1344 -9.45165,13.08689 -19.81212,3.4535 -10.90575,-7.81579 z"
           id="path29152" /></g></g><g
       id="g29200"
       transform="translate(372.40102,304.30814)"
       style="fill:#006d6b;fill-opacity:1;stroke:#07ffed;stroke-opacity:1"><path
         style="fill:#006d6b;fill-opacity:1;stroke:#07ffed;stroke-width:3;stroke-linecap:round;stroke-linejoin:round;stroke-dasharray:none;stroke-opacity:1"
         d="m 165.96219,189.06096 -19.08507,-6.36169 7.99755,-32.17197 22.17503,8.17932 z"
         id="path29176" /><path
         style="fill:#006d6b;fill-opacity:1;stroke:#07ffed;stroke-width:3;stroke-linecap:round;stroke-linejoin:round;stroke-dasharray:none;stroke-opacity:1"
         d="m 49.960691,189.06096 19.08508,-6.36169 -1.4541,-35.08017 -28.71849,11.08752 z"
         id="path29178" /><path
         style="fill:#006d6b;fill-opacity:1;stroke:#07ffed;stroke-width:3;stroke-linecap:round;stroke-linejoin:round;stroke-dasharray:none;stroke-opacity:1"
         d="m 157.60111,50.557906 -2.33173,100.577064 25.05205,-29.50791 0.18176,-38.897188 z"
         id="path29180" /><path
         style="fill:#006d6b;fill-opacity:1;stroke:#07ffed;stroke-width:3;stroke-linecap:round;stroke-linejoin:round;stroke-dasharray:none;stroke-opacity:1"
         d="M 156.87405,85.092792 68.173941,83.820452 69.082754,49.46733 157.60111,50.194381 Z"
         id="path29182" /><path
         style="fill:#006d6b;fill-opacity:1;stroke:#07ffed;stroke-width:3;stroke-linecap:round;stroke-linejoin:round;stroke-dasharray:none;stroke-opacity:1"
         d="M 66.356291,149.95693 68.719208,49.442253 43.635971,79.796602 43.454211,118.69378 Z"
         id="path29184" /><path
         style="fill:#006d6b;fill-opacity:1;stroke:#07ffed;stroke-width:3;stroke-linecap:round;stroke-linejoin:round;stroke-dasharray:none;stroke-opacity:1"
         d="m 59.812871,248.13379 10.90575,-33.9896 h 39.624229 l -0.36353,11.81457 -9.08812,30.53611 z"
         id="path29186" /><path
         style="fill:#006d6b;fill-opacity:1;stroke:#07ffed;stroke-width:3;stroke-linecap:round;stroke-linejoin:round;stroke-dasharray:none;stroke-opacity:1"
         d="m 158.01248,246.31616 -10.90575,-33.9896 h -39.62424 l 0.36353,11.81457 9.08813,30.53611 z"
         id="path29188" /><path
         style="fill:#006d6b;fill-opacity:1;stroke:#07ffed;stroke-width:3;stroke-linecap:round;stroke-linejoin:round;stroke-dasharray:none;stroke-opacity:1"
         d="m 130.69714,149.47237 22.90519,0.32788 0.72705,66.52509 7.99756,12.54162 -104.331699,1.27234 6.54345,-12.35986 0.18176,-69.25152 26.35798,0.37731"
         id="path29190" /><path
         style="fill:#006d6b;fill-opacity:1;stroke:#07ffed;stroke-width:3;stroke-linecap:round;stroke-linejoin:round;stroke-dasharray:none;stroke-opacity:1"
         d="M 95.086594,150.70907 115.98928,185.78924 104.72001,185.971 84.726134,151.07259 Z"
         id="path29192" /><path
         style="fill:#006d6b;fill-opacity:1;stroke:#07ffed;stroke-width:3;stroke-linecap:round;stroke-linejoin:round;stroke-dasharray:none;stroke-opacity:1"
         d="m 125.79267,150.52731 -35.807219,61.25397 11.996329,-0.18176 34.17135,-60.70869 z"
         id="path29194" /><path
         style="fill:#006d6b;fill-opacity:1;stroke:#07ffed;stroke-width:3;stroke-linecap:round;stroke-linejoin:round;stroke-dasharray:none;stroke-opacity:1"
         d="m 60.903441,218.14297 97.424719,-1.4541 -0.18176,-11.26928 -97.788249,1.27234 z"
         id="path29196" /><path
         style="fill:#006d6b;fill-opacity:1;stroke:#07ffed;stroke-width:3;stroke-linecap:round;stroke-linejoin:round;stroke-dasharray:none;stroke-opacity:1"
         d="m 66.901584,131.23539 88.806586,0.0183 0.0753,19.4927 -89.608919,-0.24414 z"
         id="path29198" /></g><g
       id="g29294"
       transform="translate(107.63844,315.36134)"><g
         id="g29206"
         transform="translate(264.76259,-8.739736)"
         style="fill:none;fill-opacity:1;stroke:#07ffed;stroke-opacity:0.733333;filter:url(#filter26605-0)"><path
           style="fill:none;fill-opacity:1;stroke:#07ffed;stroke-width:3;stroke-linecap:round;stroke-linejoin:round;stroke-dasharray:none;stroke-opacity:0.733333"
           d="m 68.900991,260.85718 20.53917,3.63524 -0.36353,9.26989 -14.35924,0.18177 -17.08567,-4.54406 z"
           id="path29202" /><path
           style="fill:none;fill-opacity:1;stroke:#07ffed;stroke-width:3;stroke-linecap:round;stroke-linejoin:round;stroke-dasharray:none;stroke-opacity:0.733333"
           d="m 148.92436,259.03955 -20.53917,3.63524 0.36352,9.26989 14.35924,0.18177 17.08568,-4.54406 z"
           id="path29204" /></g><g
         id="g29214"
         transform="translate(264.76259,-8.739736)"
         style="fill:none;fill-opacity:1;stroke:#07ffed;stroke-opacity:1;filter:url(#filter26601-8)"><g
           id="g29212"
           style="fill:none;fill-opacity:1;stroke:#07ffed;stroke-opacity:1"><path
             style="fill:none;fill-opacity:1;stroke:#07ffed;stroke-width:3;stroke-linecap:round;stroke-linejoin:round;stroke-dasharray:none;stroke-opacity:1"
             d="m 59.812871,247.95203 9.45165,13.08689 19.81211,3.4535 10.90576,-7.81579 z"
             id="path29208" /><path
             style="fill:none;fill-opacity:1;stroke:#07ffed;stroke-width:3;stroke-linecap:round;stroke-linejoin:round;stroke-dasharray:none;stroke-opacity:1"
             d="m 158.01248,246.1344 -9.45165,13.08689 -19.81212,3.4535 -10.90575,-7.81579 z"
             id="path29210" /></g></g><g
         id="g29240"
         transform="translate(264.76259,-11.053196)"
         style="fill:none;fill-opacity:1;stroke:#07ffed;stroke-opacity:1;filter:url(#filter27258)"><path
           style="fill:none;fill-opacity:1;stroke:#07ffed;stroke-width:3;stroke-linecap:round;stroke-linejoin:round;stroke-dasharray:none;stroke-opacity:1"
           d="m 165.96219,189.06096 -11.63281,-4.3623 0.54529,-34.17136 22.17503,8.17932 z"
           id="path29216" /><path
           style="fill:none;fill-opacity:1;stroke:#07ffed;stroke-width:3;stroke-linecap:round;stroke-linejoin:round;stroke-dasharray:none;stroke-opacity:1"
           d="m 49.960691,189.06096 15.268067,-6.36169 1.090575,-33.80783 -27.446152,9.81518 z"
           id="path29218" /><path
           style="fill:none;fill-opacity:1;stroke:#07ffed;stroke-width:3;stroke-linecap:round;stroke-linejoin:round;stroke-dasharray:none;stroke-opacity:1"
           d="m 157.60111,50.557906 -2.33173,100.577064 25.05205,-29.50791 0.18176,-38.897188 z"
           id="path29220" /><path
           style="fill:none;fill-opacity:1;stroke:#07ffed;stroke-width:3;stroke-linecap:round;stroke-linejoin:round;stroke-dasharray:none;stroke-opacity:1"
           d="M 156.87405,85.092792 68.173941,83.820452 69.082754,49.46733 157.60111,50.194381 Z"
           id="path29222" /><path
           style="fill:none;fill-opacity:1;stroke:#07ffed;stroke-width:3;stroke-linecap:round;stroke-linejoin:round;stroke-dasharray:none;stroke-opacity:1"
           d="M 66.356291,149.95693 68.719208,49.442253 43.635971,79.796602 43.454211,118.69378 Z"
           id="path29224" /><path
           style="fill:none;fill-opacity:1;stroke:#07ffed;stroke-width:3;stroke-linecap:round;stroke-linejoin:round;stroke-dasharray:none;stroke-opacity:1"
           d="m 59.812871,248.13379 6.899407,-17.36414 38.533652,-1.09057 3.70519,1.16365 -8.05992,25.65214 z"
           id="path29226" /><path
           style="fill:none;fill-opacity:1;stroke:#07ffed;stroke-width:3;stroke-linecap:round;stroke-linejoin:round;stroke-dasharray:none;stroke-opacity:1"
           d="m 158.01248,246.31616 -6.68645,-17.65237 -39.44248,1.4541 -2.49522,-0.0646 7.54582,24.62394 z"
           id="path29228" /><path
           style="fill:none;fill-opacity:1;stroke:#07ffed;stroke-width:3;stroke-linecap:round;stroke-linejoin:round;stroke-dasharray:none;stroke-opacity:1"
           d="m 154.32938,216.32534 7.99756,12.54162 -104.331699,1.27234 6.54345,-12.35986 m 0.02927,-11.15351 0.152486,-58.09801 26.35798,0.37731 20.184663,31.35993 19.43405,-30.79279 22.90519,0.32788 0.61714,56.46796"
           id="path29230" /><path
           style="fill:none;fill-opacity:1;stroke:#07ffed;stroke-width:3;stroke-linecap:round;stroke-linejoin:round;stroke-dasharray:none;stroke-opacity:1"
           d="m 94.177781,149.07321 16.540389,27.80967 -5.99816,9.08812 -20.902689,-36.53427 z"
           id="path29232" /><path
           style="fill:none;fill-opacity:1;stroke:#07ffed;stroke-width:3;stroke-linecap:round;stroke-linejoin:round;stroke-dasharray:none;stroke-opacity:1"
           d="m 127.24677,148.52792 -33.989593,57.98224 11.996333,-0.18176 32.35372,-57.43696 z"
           id="path29234" /><path
           style="fill:none;fill-opacity:1;stroke:#07ffed;stroke-width:3;stroke-linecap:round;stroke-linejoin:round;stroke-dasharray:none;stroke-opacity:1"
           d="m 60.903441,218.14297 97.424719,-1.4541 -0.18176,-11.26928 -97.788249,1.27234 z"
           id="path29236" /><path
           style="fill:none;fill-opacity:1;stroke:#07ffed;stroke-width:3;stroke-linecap:round;stroke-linejoin:round;stroke-dasharray:none;stroke-opacity:1"
           d="m 66.901584,131.23539 88.806586,0.0183 0.0753,19.4927 -89.608919,-0.24414 z"
           id="path29238" /></g><g
         id="g29266"
         transform="translate(264.76259,-11.053196)"
         style="fill:none;fill-opacity:1;stroke:#07ffed;stroke-opacity:1;filter:url(#filter27290)"><path
           style="fill:none;fill-opacity:1;stroke:#07ffed;stroke-width:3;stroke-linecap:round;stroke-linejoin:round;stroke-dasharray:none;stroke-opacity:1"
           d="m 165.96219,189.06096 -11.63281,-4.3623 0.54529,-34.17136 22.17503,8.17932 z"
           id="path29242" /><path
           style="fill:none;fill-opacity:1;stroke:#07ffed;stroke-width:3;stroke-linecap:round;stroke-linejoin:round;stroke-dasharray:none;stroke-opacity:1"
           d="m 49.960691,189.06096 15.268067,-6.36169 1.090575,-33.80783 -27.446152,9.81518 z"
           id="path29244" /><path
           style="fill:none;fill-opacity:1;stroke:#07ffed;stroke-width:3;stroke-linecap:round;stroke-linejoin:round;stroke-dasharray:none;stroke-opacity:1"
           d="m 157.60111,50.557906 -2.33173,100.577064 25.05205,-29.50791 0.18176,-38.897188 z"
           id="path29246" /><path
           style="fill:none;fill-opacity:1;stroke:#07ffed;stroke-width:3;stroke-linecap:round;stroke-linejoin:round;stroke-dasharray:none;stroke-opacity:1"
           d="M 156.87405,85.092792 68.173941,83.820452 69.082754,49.46733 157.60111,50.194381 Z"
           id="path29248" /><path
           style="fill:none;fill-opacity:1;stroke:#07ffed;stroke-width:3;stroke-linecap:round;stroke-linejoin:round;stroke-dasharray:none;stroke-opacity:1"
           d="M 66.356291,149.95693 68.719208,49.442253 43.635971,79.796602 43.454211,118.69378 Z"
           id="path29250" /><path
           style="fill:none;fill-opacity:1;stroke:#07ffed;stroke-width:3;stroke-linecap:round;stroke-linejoin:round;stroke-dasharray:none;stroke-opacity:1"
           d="m 59.812871,248.13379 6.899407,-17.36414 38.533652,-1.09057 3.70519,1.16365 -8.05992,25.65214 z"
           id="path29252" /><path
           style="fill:none;fill-opacity:1;stroke:#07ffed;stroke-width:3;stroke-linecap:round;stroke-linejoin:round;stroke-dasharray:none;stroke-opacity:1"
           d="m 158.01248,246.31616 -6.68645,-17.65237 -39.44248,1.4541 -2.49522,-0.0646 7.54582,24.62394 z"
           id="path29254" /><path
           style="fill:none;fill-opacity:1;stroke:#07ffed;stroke-width:3;stroke-linecap:round;stroke-linejoin:round;stroke-dasharray:none;stroke-opacity:1"
           d="m 130.69714,149.47237 22.90519,0.32788 0.61314,56.10249 m 0.11391,10.4226 7.99756,12.54162 -104.331699,1.27234 6.54345,-12.35986 m 0.02832,-10.79047 0.153439,-58.46105 26.35798,0.37731"
           id="path29256" /><path
           style="fill:none;fill-opacity:1;stroke:#07ffed;stroke-width:3;stroke-linecap:round;stroke-linejoin:round;stroke-dasharray:none;stroke-opacity:1"
           d="m 94.177781,149.07321 16.540389,27.80967 -5.99816,9.08812 -20.902689,-36.53427 z"
           id="path29258" /><path
           style="fill:none;fill-opacity:1;stroke:#07ffed;stroke-width:3;stroke-linecap:round;stroke-linejoin:round;stroke-dasharray:none;stroke-opacity:1"
           d="m 125.31889,150.84138 -32.243475,55.30526 11.996325,-0.18176 30.60761,-54.75998 z"
           id="path29260" /><path
           style="fill:none;fill-opacity:1;stroke:#07ffed;stroke-width:3;stroke-linecap:round;stroke-linejoin:round;stroke-dasharray:none;stroke-opacity:1"
           d="m 60.903441,218.14297 97.424719,-1.4541 -0.18176,-11.26928 -97.788249,1.27234 z"
           id="path29262" /><path
           style="fill:none;fill-opacity:1;stroke:#07ffed;stroke-width:3;stroke-linecap:round;stroke-linejoin:round;stroke-dasharray:none;stroke-opacity:1"
           d="m 66.901584,131.23539 88.806586,0.0183 0.0753,19.4927 -89.608919,-0.24414 z"
           id="path29264" /></g><g
         id="g29292"
         transform="translate(264.76259,-11.053196)"
         style="fill:none;fill-opacity:1;stroke:#07ffed;stroke-opacity:1;filter:url(#filter27320)"><path
           style="fill:none;fill-opacity:1;stroke:#07ffed;stroke-width:3;stroke-linecap:round;stroke-linejoin:round;stroke-dasharray:none;stroke-opacity:1"
           d="m 165.96219,189.06096 -11.63281,-4.3623 0.54529,-34.17136 22.17503,8.17932 z"
           id="path29268" /><path
           style="fill:none;fill-opacity:1;stroke:#07ffed;stroke-width:3;stroke-linecap:round;stroke-linejoin:round;stroke-dasharray:none;stroke-opacity:1"
           d="m 49.960691,189.06096 15.268067,-6.36169 1.090575,-33.80783 -27.446152,9.81518 z"
           id="path29270" /><path
           style="fill:none;fill-opacity:1;stroke:#07ffed;stroke-width:3;stroke-linecap:round;stroke-linejoin:round;stroke-dasharray:none;stroke-opacity:1"
           d="m 157.60111,50.557906 -2.33173,100.577064 25.05205,-29.50791 0.18176,-38.897188 z"
           id="path29272" /><path
           style="fill:none;fill-opacity:1;stroke:#07ffed;stroke-width:3;stroke-linecap:round;stroke-linejoin:round;stroke-dasharray:none;stroke-opacity:1"
           d="M 156.87405,85.092792 68.173941,83.820452 69.082754,49.46733 157.60111,50.194381 Z"
           id="path29274" /><path
           style="fill:none;fill-opacity:1;stroke:#07ffed;stroke-width:3;stroke-linecap:round;stroke-linejoin:round;stroke-dasharray:none;stroke-opacity:1"
           d="M 66.356291,149.95693 68.719208,49.442253 43.635971,79.796602 43.454211,118.69378 Z"
           id="path29276" /><path
           style="fill:none;fill-opacity:1;stroke:#07ffed;stroke-width:3;stroke-linecap:round;stroke-linejoin:round;stroke-dasharray:none;stroke-opacity:1"
           d="m 59.812871,248.13379 6.899407,-17.36414 38.533652,-1.09057 3.70519,1.16365 -8.05992,25.65214 z"
           id="path29278" /><path
           style="fill:none;fill-opacity:1;stroke:#07ffed;stroke-width:3;stroke-linecap:round;stroke-linejoin:round;stroke-dasharray:none;stroke-opacity:1"
           d="m 158.01248,246.31616 -6.68645,-17.65237 -39.44248,1.4541 -2.49522,-0.0646 7.54582,24.62394 z"
           id="path29280" /><path
           style="fill:none;fill-opacity:1;stroke:#07ffed;stroke-width:3;stroke-linecap:round;stroke-linejoin:round;stroke-dasharray:none;stroke-opacity:1"
           d="m 130.69714,149.47237 22.90519,0.32788 0.62508,57.19493 m 0.10197,9.33016 7.99756,12.54162 -104.331699,1.27234 6.54345,-12.35986 m 0.02736,-10.42551 0.154397,-58.82601 26.35798,0.37731"
           id="path29282" /><path
           style="fill:none;fill-opacity:1;stroke:#07ffed;stroke-width:3;stroke-linecap:round;stroke-linejoin:round;stroke-dasharray:none;stroke-opacity:1"
           d="m 95.450119,151.0726 15.268051,25.81028 -5.99816,9.08812 -19.630351,-34.53488 z"
           id="path29284" /><path
           style="fill:none;fill-opacity:1;stroke:#07ffed;stroke-width:3;stroke-linecap:round;stroke-linejoin:round;stroke-dasharray:none;stroke-opacity:1"
           d="m 104.88998,205.78311 31.44491,-54.71052 -10.36046,-0.36352 -33.080778,55.2558"
           id="path29286" /><path
           style="fill:none;fill-opacity:1;stroke:#07ffed;stroke-width:3;stroke-linecap:round;stroke-linejoin:round;stroke-dasharray:none;stroke-opacity:1"
           d="m 60.903441,218.14297 97.424719,-1.4541 -0.18176,-11.26928 -97.788249,1.27234 z"
           id="path29288" /><path
           style="fill:none;fill-opacity:1;stroke:#07ffed;stroke-width:3;stroke-linecap:round;stroke-linejoin:round;stroke-dasharray:none;stroke-opacity:1"
           d="m 66.901584,131.23539 88.806586,0.0183 0.0753,19.4927 -89.608919,-0.24414 z"
           id="path29290" /></g></g></g></svg>
