<?xml version="1.0" encoding="UTF-8" standalone="no"?>
<!-- Created with Inkscape (http://www.inkscape.org/) -->

<svg
   width="195.26099mm"
   height="34.741508mm"
   viewBox="0 0 195.26099 34.741508"
   version="1.1"
   id="svg5"
   xml:space="preserve"
   sodipodi:docname="all-icons-2024.svg"
   xmlns:inkscape="http://www.inkscape.org/namespaces/inkscape"
   xmlns:sodipodi="http://sodipodi.sourceforge.net/DTD/sodipodi-0.dtd"
   xmlns="http://www.w3.org/2000/svg"
   xmlns:svg="http://www.w3.org/2000/svg"><sodipodi:namedview
     id="namedview7"
     pagecolor="#505050"
     bordercolor="#eeeeee"
     borderopacity="1"
     inkscape:showpageshadow="0"
     inkscape:pageopacity="0"
     inkscape:pagecheckerboard="0"
     inkscape:deskcolor="#505050"
     inkscape:document-units="mm"
     showgrid="false"
     inkscape:zoom="2.0586053"
     inkscape:cx="254.78415"
     inkscape:cy="315.99064"
     inkscape:window-width="1920"
     inkscape:window-height="992"
     inkscape:window-x="-8"
     inkscape:window-y="-8"
     inkscape:window-maximized="1"
     inkscape:current-layer="layer1" /><defs
     id="defs2"><linearGradient
       id="linearGradient972"
       inkscape:swatch="solid"><stop
         style="stop-color:#000000;stop-opacity:1;"
         offset="0"
         id="stop970" /></linearGradient><style
       id="style183">.cls-1{fill:#9d9795;}.cls-2{fill:#cfb991;}</style></defs><g
     inkscape:label="Layer 1"
     inkscape:groupmode="layer"
     id="layer1"
     transform="translate(-4.1702419,-3.2981001)"><path
       id="path1047"
       style="fill:#000000;fill-opacity:1;fill-rule:nonzero;stroke:none;stroke-width:1.39662;stroke-linejoin:round;stroke-dasharray:none;stroke-opacity:1"
       d="m 18.826711,3.2981003 -2.673222,6.2709348 -2.673222,6.2704189 3.433383,0.04961 c 1.888358,0.02715 3.433315,0.109081 3.432865,0.181901 -4.6e-4,0.07282 -0.855049,2.136002 -1.899109,4.58525 l -1.898592,4.453475 -3.532084,0.04909 -3.5320837,0.04909 -2.6572025,6.228044 c -1.4614652,3.425318 -2.6572022,6.286785 -2.6572022,6.358785 0,0.072 7.7078514,0.110249 17.1286704,0.08475 l 17.129187,-0.04651 2.183329,-5.13457 2.183329,-5.134571 h 4.730461 c 2.601822,-1.54e-4 5.42382,-0.08648 6.270935,-0.191719 6.559477,-0.814939 10.328932,-3.587305 13.173356,-9.689331 1.441525,-3.092447 1.81746,-4.489144 1.81746,-6.750493 0,-1.7869729 -0.05146,-2.1095469 -0.485242,-3.0349559 C 67.303609,5.7679437 65.112102,4.2889336 61.970848,3.6246953 60.53549,3.3211776 58.949812,3.2981003 39.625958,3.2981003 Z M 117.04501,3.721847 v 0.7224365 0.7219198 l 1.18132,0.3198771 1.18132,0.3198771 v 8.1250855 8.125602 l -1.18132,0.319877 c -1.15876,0.313667 -1.18132,0.331181 -1.18132,0.935344 v 0.615983 h 4.08967 4.08967 v -0.635104 c 0,-0.621741 -0.0238,-0.641759 -1.09089,-0.938444 l -1.09037,-0.30334 v -3.33313 -3.332613 h 1.50224 1.50223 l 2.06912,4.271574 2.06965,4.271057 h 2.79001 2.79001 v -0.625285 c 0,-0.612593 -0.0257,-0.634178 -1.23352,-1.023194 l -1.23403,-0.397391 -1.87637,-3.712952 c -1.03208,-2.042079 -1.84685,-3.734351 -1.81075,-3.761011 0.0361,-0.02666 0.44044,-0.263366 0.89866,-0.525549 1.12463,-0.643477 2.10044,-1.763232 2.36368,-2.713013 0.11938,-0.430535 0.21222,-1.4215139 0.20722,-2.2024489 -0.0167,-2.474177 -0.97997,-3.8724857 -3.24838,-4.7149579 -0.99448,-0.3693426 -1.44808,-0.3995741 -6.92619,-0.4625041 z M 77.965737,3.752336 v 0.7265706 0.7260539 l 1.090889,0.3033407 1.090373,0.3033406 v 8.1225012 0.0067 8.115784 l -1.181323,0.319877 c -1.158776,0.313667 -1.181323,0.331181 -1.181323,0.935344 -2e-6,0.0027 0,0.0045 0,0.0072 v 0.608749 h 4.180106 4.180624 v -0.615983 c 0,-0.604163 -0.02255,-0.622195 -1.181324,-0.935861 l -1.181323,-0.31936 v -3.22616 -0.0186 -3.207039 l 1.330668,-0.03772 h 1.023194 c 1.301165,0 2.377717,-0.07255 3.278869,-0.235645 0.96059,-0.140661 1.599815,-0.371911 2.185913,-0.762744 0.424,-0.256412 0.782349,-0.569408 1.091407,-0.944645 0.528563,-0.584235 0.848238,-1.219838 1.017509,-2.067574 C 93.914904,10.59586 93.955522,9.308657 93.827818,8.249174 93.780108,7.63415 93.679685,7.266101 93.483653,6.842025 92.749332,5.2534994 91.300605,4.3063398 89.053432,3.9450892 88.403633,3.8406273 85.643086,3.7546804 82.918923,3.7538864 Z m 17.449581,0 v 0.7265706 0.7260539 l 1.080554,0.3007568 1.081075,0.3002401 0.05477,6.9251586 c 0.05287,6.628239 0.07208,6.961801 0.4439,7.765934 0.84417,1.825671 2.458043,3.040269 4.682413,3.524333 h 5.1e-4 c 0.60978,0.132589 1.82015,0.2479 2.68976,0.255798 4.54229,0.04151 6.90807,-1.758848 7.41195,-5.640482 0.0958,-0.738583 0.17683,-3.929155 0.17983,-7.090007 l 0.006,-5.7469358 1.09089,-0.3059244 1.09037,-0.3059245 V 4.4701217 3.7523361 h -3.54449 -3.54396 v 0.7177856 0.7177857 l 1.09864,0.3079915 1.09864,0.3085083 -0.0532,6.6533408 -0.0537,6.653857 -0.50488,0.858346 c -0.32727,0.556731 -0.8065,1.035958 -1.36323,1.363224 -0.7763,0.456336 -1.0243,0.504879 -2.59002,0.504879 -2.27135,0 -3.28916,-0.464628 -3.98684,-1.819527 l -0.46147,-0.896587 -0.0558,-6.652307 -0.0553,-6.6528234 1.10071,-0.3059245 1.10071,-0.3059245 V 4.4789067 3.7523361 h -3.998733 z m 42.168492,0 v 0.7177856 0.7177857 l 1.09089,0.3059245 1.09037,0.3059244 v 8.1457558 8.146273 l -1.09037,0.305925 c -1.05648,0.296438 -1.09089,0.325197 -1.09089,0.91829 v 0.611849 h 5.6875 c 4.5504,0 5.90374,-0.05624 6.7691,-0.281637 4.16546,-1.084963 6.08925,-4.22814 6.08025,-9.934794 -0.005,-3.522156 -0.70009,-5.733416 -2.34818,-7.476029 -2.07648,-2.1955694 -3.28463,-2.4756524 -10.6903,-2.4799524 z m 19.81222,0 v 0.7177856 0.7177857 l 1.09038,0.3059245 1.09089,0.3059244 0.003,6.2921228 c 0.003,6.817189 0.0942,7.675881 0.96893,9.168432 0.83998,1.433313 2.41181,2.411645 4.57182,2.845305 h 5.1e-4 c 1.22725,0.246184 3.93538,0.195588 5.17747,-0.09715 2.15908,-0.50887 3.44517,-1.583352 4.22868,-3.533635 0.38507,-0.95849 0.40369,-1.281386 0.46199,-7.834663 l 0.061,-6.8352421 1.07901,-0.2997233 1.079,-0.3002401 V 4.4789067 3.7523361 h -3.45353 -3.45354 v 0.7265706 0.7260539 l 1.10071,0.3059245 1.10122,0.3064412 -0.0558,6.4652387 c -0.0602,6.98322 -0.0967,7.257869 -1.10949,8.343676 -0.86064,0.92265 -1.72089,1.211895 -3.58118,1.205095 -2.37307,-0.0087 -3.42604,-0.557922 -4.08295,-2.130103 -0.23417,-0.560561 -0.27957,-1.742542 -0.27957,-7.285343 V 5.7997563 l 1.09037,-0.3059244 1.09089,-0.3059245 V 4.4701217 3.7523361 h -4.08967 z m 21.81159,0 v 0.7177856 0.7177857 l 1.09037,0.3059245 1.09089,0.3059244 v 8.1483398 8.14834 l -0.77256,0.199471 c -0.42487,0.10977 -0.91543,0.241202 -1.09037,0.291972 -0.22319,0.06478 -0.31833,0.278367 -0.31833,0.716235 v 0.624251 h 7.79694 7.79746 l 0.12299,-2.499072 c 0.0678,-1.374576 0.16381,-2.642451 0.21291,-2.817399 0.0777,-0.276774 -0.0486,-0.318327 -0.97049,-0.318327 h -1.05936 l -0.71831,1.908411 -0.71882,1.908927 h -3.23236 -3.23287 v -3.823539 -3.823539 l 1.85208,0.05168 1.85157,0.05219 0.12867,0.545186 c 0.0708,0.299908 0.17955,0.769983 0.24185,1.044897 0.10025,0.442625 0.19589,0.500228 0.83664,0.500228 h 0.72398 v -2.9993 -2.9993 h -0.72037 c -0.69491,0 -0.72693,0.02703 -0.91777,0.772563 -0.10876,0.424867 -0.23198,0.874976 -0.27388,0.999939 -0.0542,0.161602 -0.60278,0.227376 -1.89963,0.227376 h -1.82314 V 9.2010991 5.743429 l 3.12074,0.049609 3.12125,0.050126 0.55966,1.9528526 0.55965,1.953369 1.07229,5.17e-4 1.07177,5.16e-4 -0.11679,-1.499133 c -0.0642,-0.824747 -0.11729,-2.174552 -0.11782,-2.9992999 l -5.2e-4,-1.4996501 h -7.63416 z M 44.795669,5.4142502 c 13.630971,-0.00971 16.379128,0.1383019 18.196305,0.7348389 2.48844,0.816898 3.704683,2.375197 3.704683,4.7469969 0,1.615221 -0.860889,4.258478 -2.309936,7.093107 -0.857963,1.678348 -1.292021,2.28755 -2.499589,3.50728 -1.184581,1.19651 -1.754197,1.614818 -3.006535,2.209167 -3.173365,1.506047 -4.782784,1.676383 -15.829008,1.676383 h -8.841321 l -0.342615,0.86248 c -0.188525,0.474388 -0.369756,0.924489 -0.403076,0.999939 -0.03332,0.07544 1.509841,0.136943 3.429248,0.136943 3.416691,0 3.487475,0.008 3.393075,0.368969 -0.05303,0.202787 -0.818878,2.082714 -1.702222,4.17804 v 5.17e-4 l -1.606103,3.809586 -14.780494,0.0021 c -13.9948247,0.002 -14.7752197,-0.01508 -14.6786897,-0.316259 0.056073,-0.174945 0.836803,-2.035279 1.734778,-4.134632 l 1.6324577,-3.817338 3.534151,-0.04909 3.534152,-0.04909 1.366325,-3.222542 c 0.751499,-1.772369 2.025785,-4.771069 2.831868,-6.663676 0.80608,-1.892605 1.465544,-3.508172 1.465544,-3.589962 0,-0.08179 -1.513155,-0.148828 -3.362586,-0.148828 -2.571971,0 -3.361301,-0.05308 -3.356901,-0.22686 0.0032,-0.124963 0.763481,-1.985807 1.689303,-4.1351479 L 20.271584,5.4793625 38.2586,5.4271693 c 2.420485,-0.00698 4.589787,-0.011532 6.537069,-0.012919 z m 78.247421,0.3079915 2.2593,0.059945 c 1.9377,0.051684 2.33244,0.1138117 2.77192,0.4356327 0.84967,0.62219 1.18659,1.535564 1.18959,3.223575 0.005,2.6875506 -0.80196,3.8395926 -2.80913,4.0131916 -0.62686,0.05421 -1.65102,0.141387 -2.27583,0.193787 l -1.13585,0.0956 V 9.7328501 Z m -39.260654,0.029456 1.289327,5.167e-4 0.84646,0.025838 c 1.287259,0.038958 2.091675,0.1340169 2.655135,0.3741379 0.27884,0.132995 0.517404,0.300622 0.718303,0.505912 0.129911,0.143106 0.246389,0.309071 0.358634,0.501261 0.303208,0.519163 0.459806,1.37875 0.476974,2.268596 -2.4e-4,0.203378 -0.0069,0.41638 -0.02015,0.6397537 -0.01807,0.304749 -0.0446,0.578763 -0.08113,0.827339 -0.09585,0.578274 -0.258101,1.087191 -0.484725,1.420586 -0.218366,0.321248 -0.683119,0.727557 -1.033012,0.902787 -0.426474,0.213585 -1.310168,0.359927 -2.680973,0.444417 l -0.667143,0.04134 -1.377694,0.08113 V 9.7685061 9.7514531 Z m 59.799974,0 h 2.05724 c 2.64371,0 3.75479,0.3115928 4.78472,1.3415198 0.57976,0.579766 0.85539,1.072875 1.18235,2.115633 0.38092,1.2150185 0.42632,1.7075265 0.42685,4.6312415 5.2e-4,2.878256 -0.0483,3.426504 -0.40463,4.559412 -0.4846,1.540534 -1.49227,2.788495 -2.63653,3.264917 -0.55316,0.230316 -1.43972,0.346917 -3.09283,0.406177 l -2.31717,0.08268 V 13.952747 Z M 47.957749,6.8694581 c -2.387957,-0.00153 -5.109937,0.00164 -8.15299,0.010336 l -18.621603,0.053226 -1.115177,2.636015 -1.115177,2.6354979 3.423563,0.04909 c 1.882939,0.02715 3.423564,0.109525 3.423564,0.182934 0,0.07341 -1.549743,3.772645 -3.443718,8.220687 l -3.4432,8.087362 -3.539319,0.04961 -3.539319,0.04909 -1.105359,2.621029 c -0.608135,1.441705 -1.1058757,2.667464 -1.1058757,2.723864 0,0.05645 5.9465257,0.08197 13.2146977,0.05633 l 13.215214,-0.04703 1.13223,-2.635498 1.132231,-2.635498 -3.546037,-0.04909 c -1.950318,-0.02713 -3.519735,-0.117771 -3.487125,-0.201021 0.03261,-0.08324 0.499022,-1.180829 1.036112,-2.439128 l 0.976168,-2.287715 10.383862,-0.0677 c 10.003965,-0.06543 10.439537,-0.08291 11.908317,-0.468706 4.124752,-1.083422 6.472029,-3.308292 8.460466,-8.019148 1.116875,-2.646025 1.493613,-4.35977 1.197859,-5.4508299 -0.446007,-1.645374 -2.08544,-2.577628 -5.142838,-2.925403 -0.822638,-0.093562 -4.982672,-0.143732 -12.146546,-0.148312 z m -2.975012,5.4280929 c 6.6251,-0.0024 6.745252,0.0042 7.534424,0.406693 1.043396,0.532114 1.250858,1.117171 0.848527,2.390552 -0.381442,1.207258 -1.122285,2.082948 -2.32699,2.75022 l -0.973584,0.539502 -7.207828,0.05271 -7.207312,0.05323 1.300179,-3.094901 1.300695,-3.095418 z M 156.62244,28.498112 c -1.93995,0.0043 -3.4044,1.157098 -3.406,2.921786 -5.8e-4,0.728304 0.0894,0.947191 0.59842,1.454175 0.32956,0.328233 1.00481,0.740498 1.50068,0.91674 2.06294,0.733207 2.65753,1.452514 2.16886,2.622062 l -0.27233,0.652673 -0.9307,-0.110587 c -1.16357,-0.137808 -1.75144,-0.511931 -1.82624,-1.16272 -0.0484,-0.420897 -0.15556,-0.513626 -0.64906,-0.561206 l -0.59066,-0.05684 v 1.006657 c 0,0.940096 0.0369,1.025448 0.55914,1.295528 0.30755,0.15904 0.90052,0.355666 1.31775,0.436666 1.01984,0.197859 2.06365,0.04794 2.92385,-0.42013 1.038,-0.56481 1.4702,-1.239696 1.4702,-2.295467 0,-1.402219 -0.43615,-1.821825 -3.27164,-3.146061 -1.09151,-0.509756 -1.41797,-1.140984 -0.98805,-1.910478 0.20121,-0.360142 0.43859,-0.501619 0.90899,-0.541569 1.02157,-0.08676 1.48442,0.178495 1.7079,0.979269 0.17236,0.617592 0.27517,0.718411 0.78445,0.767911 l 0.58549,0.05684 V 30.21532 29.027796 l -1.03146,-0.30024 c -0.5399,-0.156954 -1.0651,-0.230546 -1.55959,-0.229444 z m -76.748292,0.155546 c -1.940264,0 -2.090312,0.0253 -2.090312,0.349333 0,0.240083 0.170686,0.386335 0.545703,0.468705 l 0.545186,0.11989 0.001,2.666504 c 5.58e-4,1.466602 0.0881,2.980844 0.19482,3.365169 0.287943,1.036978 1.194397,1.92679 2.264461,2.22312 1.945535,0.538789 3.958856,-0.08476 4.609021,-1.42782 0.340893,-0.704198 0.382923,-1.112988 0.382923,-3.74189 v -2.951241 l 0.545186,-0.19017 c 0.348144,-0.121364 0.545186,-0.314627 0.545186,-0.535367 0,-0.316775 -0.152171,-0.346233 -1.81746,-0.346233 -1.70393,0 -1.81746,0.02341 -1.81746,0.368453 0,0.263557 0.154734,0.398884 0.545187,0.476974 l 0.545186,0.109037 v 2.873727 c 0,1.580505 -0.07848,3.079421 -0.17415,3.331062 -0.417167,1.097234 -2.416068,1.335188 -3.233394,0.38499 -0.38943,-0.452757 -0.409277,-0.623664 -0.409277,-3.535702 v -3.060278 l 0.454235,-0.113688 c 0.293394,-0.07364 0.454236,-0.241911 0.454236,-0.47439 0,-0.338051 -0.12792,-0.360185 -2.090311,-0.360185 z m 12.68553,0 c -0.9825,0 -1.143599,0.04666 -1.143599,0.329696 0,0.181139 0.245795,0.510524 0.545703,0.732255 l 0.545186,0.403076 v 3.362069 3.361552 l -0.545186,0.109037 c -0.422198,0.08443 -0.545703,0.206296 -0.545703,0.540536 0,0.423679 0.03058,0.432015 1.727026,0.432015 1.696453,0 1.72651,-0.0079 1.72651,-0.432015 0,-0.33424 -0.122989,-0.456106 -0.545187,-0.540536 l -0.545186,-0.109037 v -2.367297 c 0,-1.302101 0.06145,-2.364597 0.136426,-2.361097 0.07498,0.0035 1.18243,1.311803 2.460831,2.907833 2.059928,2.571734 2.385218,2.902149 2.862358,2.902149 h 0.53847 v -4.098975 -4.099491 l 0.545183,-0.19017 c 0.34814,-0.121364 0.54571,-0.314627 0.54571,-0.535367 0,-0.315555 -0.15106,-0.346233 -1.727033,-0.346233 -1.60004,0 -1.72651,0.02655 -1.72651,0.360185 0,0.232479 0.16085,0.40075 0.45424,0.47439 l 0.45423,0.113688 v 2.354378 c 0,1.294664 -0.06637,2.312941 -0.14727,2.262911 -0.08094,-0.05002 -1.12023,-1.322847 -2.309941,-2.828251 l -2.163175,-2.737301 z m 15.124142,0 c -1.94027,0 -2.08979,0.0253 -2.08979,0.349333 0,0.240083 0.17016,0.386335 0.54518,0.468705 l 0.54519,0.11989 v 3.602881 3.603397 l -0.54519,0.189653 c -0.36696,0.127925 -0.54518,0.312273 -0.54518,0.563273 0,0.354479 0.10303,0.373104 2.08979,0.373104 2.08327,0 2.09031,-0.0014 2.09031,-0.434599 0,-0.31209 -0.128,-0.466924 -0.45423,-0.548804 l -0.45424,-0.114205 v -3.612182 -3.612183 l 0.45424,-0.113688 c 0.29339,-0.07364 0.45423,-0.241911 0.45423,-0.47439 0,-0.338051 -0.12791,-0.360185 -2.09031,-0.360185 z m 8.4522,0 c -2.02259,0 -2.18126,0.02562 -2.18126,0.346233 0,0.213258 0.19191,0.413186 0.50023,0.521931 0.45166,0.159311 0.62919,0.532965 1.84433,3.879867 0.73963,2.03716 1.4123,3.887997 1.495,4.112927 0.12988,0.35351 0.28029,0.408971 1.10897,0.408761 h 0.95912 l 1.47123,-4.044198 c 1.37725,-3.785093 1.50815,-4.060251 2.04483,-4.303613 0.33798,-0.153262 0.57309,-0.396232 0.57309,-0.591178 0,-0.297742 -0.1811,-0.33073 -1.81746,-0.33073 -1.70392,0 -1.81746,0.02341 -1.81746,0.368453 0,0.263557 0.15473,0.398884 0.54519,0.476974 0.2999,0.05998 0.54519,0.175955 0.54519,0.257865 0,0.179472 -1.96609,5.831537 -2.06189,5.927287 -0.0369,0.03693 -0.50092,-1.182524 -1.03095,-2.709395 -0.53004,-1.526875 -1.00063,-2.87924 -1.04593,-3.005502 -0.0477,-0.132812 0.15593,-0.312767 0.48318,-0.426847 0.36565,-0.127469 0.56585,-0.319097 0.56585,-0.542602 0,-0.320605 -0.15868,-0.346233 -2.18126,-0.346233 z m 15.08642,0 c -3.45176,0 -3.63544,0.01794 -3.63544,0.346233 0,0.221283 0.19784,0.414393 0.54932,0.536918 l 0.5488,0.191202 -0.0491,3.589962 -0.0491,3.589962 -0.45475,0.106453 c -0.28713,0.06723 -0.47542,0.25427 -0.51212,0.50798 l -0.0584,0.401526 h 3.73879 3.73879 v -0.795301 c 0,-0.437363 0.0512,-1.05082 0.11369,-1.363224 0.10653,-0.532627 0.0806,-0.567924 -0.41807,-0.567924 -0.45022,0 -0.59271,0.125564 -0.92914,0.818038 l -0.39739,0.817521 h -1.36581 -1.36529 V 35.288396 33.74327 h 1.27227 1.27228 v -0.636137 -0.636137 h -1.27228 -1.27227 v -1.363224 -1.363224 h 1.34772 1.34824 l 0.31264,0.818038 c 0.27413,0.7178 0.37907,0.817521 0.8568,0.817521 0.52791,0 0.54076,-0.02062 0.4315,-0.681612 -0.062,-0.374885 -0.11373,-0.988339 -0.11473,-1.363224 l -0.002,-0.681613 z m 11.72951,0 c -2.65357,0 -2.82308,0.02125 -2.82308,0.346233 0,0.22074 0.19705,0.414003 0.54519,0.535367 l 0.54518,0.19017 v 3.536218 3.536218 l -0.54518,0.189653 c -0.36696,0.127925 -0.54519,0.312273 -0.54519,0.563273 0,0.354479 0.10356,0.373104 2.09031,0.373104 2.07907,0 2.0898,-0.0026 2.0898,-0.432015 0,-0.33424 -0.12299,-0.456106 -0.54519,-0.540536 l -0.54519,-0.109037 v -1.367875 -1.367875 h 0.54106 c 0.50893,0 0.59524,0.11429 1.44177,1.908927 l 0.9002,1.908411 h 1.55753 c 1.42582,0 1.55753,-0.03048 1.55753,-0.356568 0,-0.25549 -0.19673,-0.415212 -0.69608,-0.564823 -0.63203,-0.18936 -0.76706,-0.350736 -1.46245,-1.752865 l -0.76584,-1.544608 0.67903,-0.587045 c 0.6302,-0.544771 0.68472,-0.67167 0.75292,-1.753381 0.0632,-1.002314 0.0159,-1.239099 -0.33796,-1.687752 -0.69281,-0.878363 -1.32012,-1.023194 -4.43436,-1.023194 z m 23.62337,0 c -1.9777,0 -2.09031,0.02021 -2.09031,0.368453 0,0.263557 0.15473,0.398884 0.54518,0.476974 l 0.54519,0.109037 v 3.61735 3.616834 l -0.54519,0.109037 c -0.4222,0.08443 -0.54518,0.206296 -0.54518,0.540536 0,0.429679 0.0112,0.432015 2.09031,0.432015 1.98675,0 2.09031,-0.01859 2.09031,-0.373104 0,-0.251 -0.17874,-0.435348 -0.5457,-0.563273 l -0.54519,-0.189653 v -3.595129 -3.594613 l 0.54519,-0.109037 c 0.39045,-0.07809 0.5457,-0.213417 0.5457,-0.476974 0,-0.348246 -0.11262,-0.368453 -2.09031,-0.368453 z m 6.81612,0 v 1.363225 1.363224 h 0.52968 c 0.4623,0 0.56293,-0.09841 0.78652,-0.772046 0.23359,-0.70377 0.3164,-0.777807 0.92811,-0.829407 l 0.67127,-0.05684 -0.0491,3.601331 c -0.049,3.579001 -0.0519,3.601478 -0.45837,3.659208 -0.296,0.04204 -0.40876,0.179971 -0.40876,0.499711 v 0.441834 h 2.09031 c 1.98676,0 2.0898,-0.01859 2.0898,-0.373104 0,-0.25101 -0.17823,-0.435353 -0.54519,-0.563273 l -0.54519,-0.189653 v -3.537252 -3.537251 l 0.75861,0.05633 c 0.71476,0.05268 0.77268,0.100293 1.01441,0.828373 0.22365,0.673619 0.32476,0.772046 0.78704,0.772046 h 0.52968 V 30.01689 28.653665 h -4.08916 z m 14.35881,0 c -2.02257,0 -2.18074,0.02562 -2.18074,0.346233 0,0.21774 0.19401,0.413437 0.52451,0.528649 0.42287,0.147412 0.77571,0.640825 1.81746,2.541447 1.23594,2.254933 1.29295,2.411973 1.29295,3.565674 0,1.195479 -0.005,1.207647 -0.54519,1.315682 -0.42219,0.08443 -0.54518,0.206296 -0.54518,0.540536 0,0.429679 0.0112,0.432015 2.09031,0.432015 1.98675,0 2.09031,-0.01859 2.09031,-0.373104 0,-0.251 -0.17823,-0.435348 -0.54519,-0.563273 -0.53729,-0.187145 -0.5457,-0.209708 -0.5457,-1.48053 0,-1.249338 0.0399,-1.36347 1.22731,-3.549654 0.95771,-1.763179 1.33633,-2.2977 1.72651,-2.435511 0.30823,-0.108867 0.49972,-0.308734 0.49972,-0.521931 0,-0.315555 -0.15055,-0.346233 -1.72651,-0.346233 -1.57597,0 -1.72703,0.03068 -1.72703,0.346233 0,0.222571 0.19901,0.414658 0.55862,0.540018 l 0.55862,0.19482 -0.8232,1.504301 c -0.45294,0.827395 -0.87923,1.490219 -0.94723,1.472779 -0.068,-0.01744 -0.48679,-0.694351 -0.93018,-1.504301 l -0.80615,-1.472779 0.55862,-0.19482 c 0.3596,-0.12536 0.55863,-0.317447 0.55863,-0.540018 0,-0.320605 -0.15868,-0.346233 -2.18127,-0.346233 z m -44.53165,1.09089 h 0.97772 c 1.07399,0 1.31968,0.171878 1.49449,1.045931 0.12008,0.600468 -0.17378,1.721143 -0.52762,2.01228 -0.11985,0.09861 -0.60621,0.237302 -1.08107,0.307992 l -0.86352,0.128674 v -1.747697 z m 54.20083,4.178556 c -0.18554,-4.55e-4 -0.37133,0.01532 -0.49661,0.04703 -0.46654,0.118094 -0.94972,0.466165 -1.19424,0.859896 -0.25133,0.404727 -0.31413,0.624306 -0.3142,1.099674 -6e-5,0.427271 0.0361,0.577447 0.22997,0.951363 0.25416,0.490226 0.74713,0.873548 1.29604,1.008207 0.24161,0.05922 0.71566,0.0593 0.94878,0 0.77094,-0.195959 1.37753,-0.852268 1.51412,-1.638659 0.1747,-1.005749 -0.48779,-2.019723 -1.48777,-2.277897 -0.12526,-0.03229 -0.31055,-0.04916 -0.49609,-0.04961 z m 0.0134,0.382923 c 0.14555,-7.31e-4 0.28652,0.01614 0.40927,0.05219 0.55063,0.161734 0.94007,0.534863 1.12293,1.07487 0.0606,0.178574 0.0685,0.257221 0.0558,0.561206 -0.016,0.383179 -0.0578,0.526239 -0.23409,0.803051 -0.22035,0.345969 -0.57265,0.603891 -0.96428,0.7059 -0.54816,0.14277 -1.13413,-0.01657 -1.54771,-0.420646 -0.77537,-0.75756 -0.59019,-2.069616 0.36535,-2.589506 0.21997,-0.119681 0.51485,-0.185673 0.79272,-0.187068 z m -0.65319,0.675927 v 0.931726 0.931726 h 0.17673 0.17673 V 36.47592 36.106433 h 0.25839 c 0.23163,0 0.26674,0.0084 0.33744,0.07906 0.0681,0.06814 0.0788,0.108481 0.0791,0.29714 7e-4,0.347989 0.009,0.362768 0.21135,0.362768 h 0.17209 l -0.0191,-0.313159 c -0.0205,-0.335302 -0.0768,-0.507755 -0.17519,-0.538985 -0.084,-0.02667 -0.0763,-0.05441 0.0315,-0.115755 0.058,-0.03302 0.11291,-0.106721 0.14831,-0.199471 0.0769,-0.201319 0.0444,-0.354118 -0.10697,-0.505396 -0.15213,-0.152022 -0.32931,-0.190686 -0.87437,-0.190686 z m 0.35346,0.321428 h 0.24288 c 0.23294,0 0.35641,0.03289 0.40721,0.109037 0.0471,0.07055 0.0255,0.265651 -0.0357,0.320911 -0.0421,0.03813 -0.14337,0.06019 -0.33745,0.0739 l -0.27699,0.01964 v -0.262 z"
       inkscape:export-filename="purdue-logo.svg"
       inkscape:export-xdpi="96"
       inkscape:export-ydpi="96" /></g></svg>
