<?xml version="1.0" encoding="UTF-8" standalone="no"?>
<!-- Created with Inkscape (http://www.inkscape.org/) -->

<svg
   width="202.15378mm"
   height="94.459785mm"
   viewBox="0 0 202.15378 94.459785"
   version="1.1"
   id="svg5"
   xmlns:xlink="http://www.w3.org/1999/xlink"
   xmlns="http://www.w3.org/2000/svg"
   xmlns:svg="http://www.w3.org/2000/svg">
  <defs
     id="defs2">
    <linearGradient
       id="linearGradient14723">
      <stop
         style="stop-color:#f69600;stop-opacity:1;"
         offset="0"
         id="stop14719" />
      <stop
         style="stop-color:#000000;stop-opacity:1;"
         offset="1"
         id="stop14721" />
    </linearGradient>
    <linearGradient
       id="linearGradient14713">
      <stop
         style="stop-color:#f69600;stop-opacity:1;"
         offset="0"
         id="stop14709" />
      <stop
         style="stop-color:#000000;stop-opacity:1;"
         offset="1"
         id="stop14711" />
    </linearGradient>
    <linearGradient
       id="linearGradient10931">
      <stop
         style="stop-color:#f69600;stop-opacity:1;"
         offset="0"
         id="stop10927" />
      <stop
         style="stop-color:#000000;stop-opacity:1;"
         offset="1"
         id="stop10929" />
    </linearGradient>
    <linearGradient
       id="linearGradient10925">
      <stop
         style="stop-color:#f69600;stop-opacity:1;"
         offset="0"
         id="stop10921" />
      <stop
         style="stop-color:#000000;stop-opacity:0.98750001;"
         offset="0.99989998"
         id="stop10923" />
    </linearGradient>
    <linearGradient
       id="linearGradient10911">
      <stop
         style="stop-color:#f69600;stop-opacity:1;"
         offset="0"
         id="stop10907" />
      <stop
         style="stop-color:#000000;stop-opacity:0.98750001;"
         offset="0.85812217"
         id="stop10909" />
    </linearGradient>
    <linearGradient
       id="linearGradient10875">
      <stop
         style="stop-color:#f69600;stop-opacity:1;"
         offset="0"
         id="stop10871" />
      <stop
         style="stop-color:#000000;stop-opacity:0.98750001;"
         offset="0.96795046"
         id="stop10873" />
    </linearGradient>
    <linearGradient
       id="linearGradient9383">
      <stop
         style="stop-color:#f69600;stop-opacity:1;"
         offset="0"
         id="stop9379" />
      <stop
         style="stop-color:#000000;stop-opacity:0.98750001;"
         offset="0.95852822"
         id="stop9381" />
    </linearGradient>
    <linearGradient
       id="linearGradient8541">
      <stop
         style="stop-color:#f69600;stop-opacity:1;"
         offset="0"
         id="stop8537" />
      <stop
         style="stop-color:#000000;stop-opacity:0.98750001;"
         offset="0.84961557"
         id="stop8539" />
    </linearGradient>
    <linearGradient
       id="linearGradient8529">
      <stop
         style="stop-color:#f69600;stop-opacity:1;"
         offset="0"
         id="stop8525" />
      <stop
         style="stop-color:#000000;stop-opacity:0.98750001;"
         offset="0.92014414"
         id="stop8527" />
    </linearGradient>
    <linearGradient
       xlink:href="#linearGradient10875"
       id="linearGradient15251"
       gradientUnits="userSpaceOnUse"
       gradientTransform="translate(14.493815,-116.42849)"
       x1="57.172127"
       y1="75.148224"
       x2="67.845917"
       y2="75.08342" />
    <linearGradient
       xlink:href="#linearGradient10925"
       id="linearGradient15253"
       gradientUnits="userSpaceOnUse"
       gradientTransform="translate(44.020066,-138.83526)"
       x1="100.50574"
       y1="83.409637"
       x2="90.548378"
       y2="87.196671" />
    <linearGradient
       xlink:href="#linearGradient10931"
       id="linearGradient15255"
       gradientUnits="userSpaceOnUse"
       x1="111.24496"
       y1="64.603317"
       x2="119.82832"
       y2="59.413399"
       gradientTransform="translate(15.816882,-110.2239)" />
    <linearGradient
       xlink:href="#linearGradient9383"
       id="linearGradient15257"
       gradientUnits="userSpaceOnUse"
       gradientTransform="translate(31.175683,-123.71908)"
       x1="59.642799"
       y1="84.034889"
       x2="46.11607"
       y2="83.95829" />
    <linearGradient
       xlink:href="#linearGradient10911"
       id="linearGradient15259"
       gradientUnits="userSpaceOnUse"
       gradientTransform="translate(16.146882,-131.1461)"
       x1="85.759933"
       y1="71.99189"
       x2="93.686111"
       y2="88.454506" />
    <linearGradient
       xlink:href="#linearGradient10911"
       id="linearGradient15261"
       gradientUnits="userSpaceOnUse"
       gradientTransform="translate(16.146882,-131.1461)"
       x1="99.771355"
       y1="89.172295"
       x2="88.144028"
       y2="81.164574" />
    <linearGradient
       xlink:href="#linearGradient8541"
       id="linearGradient15263"
       gradientUnits="userSpaceOnUse"
       x1="66.734474"
       y1="47.217022"
       x2="68.719582"
       y2="130.26625"
       gradientTransform="translate(15.816882,-110.2239)" />
    <linearGradient
       xlink:href="#linearGradient8541"
       id="linearGradient15265"
       gradientUnits="userSpaceOnUse"
       x1="43.897209"
       y1="37.958138"
       x2="79.602928"
       y2="115.78034"
       gradientTransform="translate(15.816882,-110.2239)" />
    <linearGradient
       xlink:href="#linearGradient8529"
       id="linearGradient15267"
       gradientUnits="userSpaceOnUse"
       x1="49.766758"
       y1="56.802467"
       x2="69.625359"
       y2="57.08252"
       gradientTransform="translate(15.816882,-110.2239)" />
    <linearGradient
       xlink:href="#linearGradient14713"
       id="linearGradient438"
       gradientUnits="userSpaceOnUse"
       gradientTransform="translate(121.69819,-26.298169)"
       x1="-111.90161"
       y1="198.98665"
       x2="-106.12749"
       y2="188.03644" />
    <linearGradient
       xlink:href="#linearGradient14723"
       id="linearGradient440"
       gradientUnits="userSpaceOnUse"
       gradientTransform="translate(-50.984337,-113.58978)"
       x1="235.30316"
       y1="43.787403"
       x2="222.57417"
       y2="53.398849" />
    <linearGradient
       xlink:href="#linearGradient14713"
       id="linearGradient1237"
       gradientUnits="userSpaceOnUse"
       gradientTransform="translate(108.60236,35.424135)"
       x1="-111.90161"
       y1="198.98665"
       x2="-106.12749"
       y2="188.03644" />
    <linearGradient
       xlink:href="#linearGradient14723"
       id="linearGradient1239"
       gradientUnits="userSpaceOnUse"
       gradientTransform="translate(12.111969,-113.58978)"
       x1="235.30316"
       y1="43.787403"
       x2="222.57417"
       y2="53.398849" />
    <linearGradient
       xlink:href="#linearGradient10925"
       id="linearGradient1241"
       gradientUnits="userSpaceOnUse"
       gradientTransform="translate(107.11637,-138.83526)"
       x1="94.759758"
       y1="67.09848"
       x2="86.22345"
       y2="66.437012" />
    <linearGradient
       xlink:href="#linearGradient10931"
       id="linearGradient1243"
       gradientUnits="userSpaceOnUse"
       gradientTransform="translate(78.913188,-110.2239)"
       x1="108.90789"
       y1="39.562382"
       x2="118.16817"
       y2="38.792484" />
  </defs>
  <g
     id="layer1"
     transform="translate(-56.997838,109.43055)">
    <path
       style="opacity:1;fill:#401160;fill-opacity:1;stroke-width:0;stroke-linecap:round;stroke-linejoin:round"
       d="M 61.075755,-78.96074 H 83.796073"
       id="path15223" />
    <path
       style="opacity:1;fill:none;fill-opacity:1;stroke:url(#linearGradient15267);stroke-width:8;stroke-linecap:butt;stroke-linejoin:bevel;stroke-dasharray:none;stroke-opacity:1"
       d="m 61.057867,-72.437393 c 0,14.716632 -1.04612,23.263121 10.66762,23.263121 11.71374,0 10.860406,-8.786115 10.860406,-23.263121"
       id="path15225" />
    <path
       style="opacity:1;fill:none;fill-opacity:1;stroke:url(#linearGradient15265);stroke-width:8;stroke-linecap:butt;stroke-linejoin:bevel;stroke-dasharray:none;stroke-opacity:1"
       d="m 82.585893,-72.437393 c 0,50.335629 0.853334,53.46662 -10.860406,53.46662 -11.71374,0 -11.631561,-10.988474 -4.755446,-15.487326"
       id="path15227" />
    <path
       style="opacity:1;fill:none;fill-opacity:1;stroke:url(#linearGradient15263);stroke-width:8;stroke-linecap:butt;stroke-linejoin:bevel;stroke-dasharray:none;stroke-opacity:1"
       d="m 82.585893,-72.437393 c 0,50.335629 0.853334,53.46662 -10.860406,53.46662 -11.71374,0 -11.631561,-10.988474 -4.755446,-15.487326"
       id="path15229" />
    <path
       style="opacity:1;fill:none;fill-opacity:1;stroke:url(#linearGradient15261);stroke-width:8;stroke-linecap:butt;stroke-linejoin:bevel;stroke-dasharray:none;stroke-opacity:1"
       d="m 123.10171,-42.566249 c -4.93019,0 -10.46111,1.829655 -18.27067,-9.919591"
       id="path15231" />
    <path
       style="opacity:1;fill:none;fill-opacity:1;stroke:url(#linearGradient15259);stroke-width:8;stroke-linecap:butt;stroke-linejoin:bevel;stroke-dasharray:none;stroke-opacity:1"
       d="m 105.51067,-48.037342 c -6.395777,-27.595693 0.97357,-27.037964 3.75565,-26.820814"
       id="path15233" />
    <path
       style="opacity:1;fill:none;fill-opacity:1;stroke:url(#linearGradient15257);stroke-width:8;stroke-linecap:butt;stroke-linejoin:bevel;stroke-dasharray:none;stroke-opacity:1"
       d="m 82.656302,-40.716947 c 16.11429,-5.251611 22.226278,-1.116396 30.750828,-18.628501 C 120.93745,-73.78116 109.19083,-74.88 109.19083,-74.88"
       id="path15235" />
    <path
       style="opacity:1;fill:none;fill-opacity:1;stroke:url(#linearGradient15255);stroke-width:8;stroke-linecap:butt;stroke-linejoin:bevel;stroke-dasharray:none;stroke-opacity:1"
       d="m 123.04084,-42.565929 c 5.4165,0 9.71367,-5.001356 13.7021,-11.992115"
       id="path15237" />
    <path
       style="opacity:1;fill:none;fill-opacity:1;stroke:url(#linearGradient15253);stroke-width:8;stroke-linecap:butt;stroke-linejoin:bevel;stroke-dasharray:none;stroke-opacity:1"
       d="m 135.73017,-53.190897 c 8.55825,-15.419418 9.21577,-20.468355 11.44881,-30.734456"
       id="path15239" />
    <path
       style="opacity:1;fill:none;fill-opacity:1;stroke:url(#linearGradient15251);stroke-width:8;stroke-linecap:butt;stroke-linejoin:bevel;stroke-dasharray:none;stroke-opacity:1"
       d="m 66.930505,-34.428536 c 3.775759,-2.466376 5.514429,-3.061782 16.201445,-6.425192"
       id="path15243" />
    <path
       style="opacity:1;fill:none;fill-opacity:1;stroke:#f69600;stroke-width:8;stroke-linecap:butt;stroke-linejoin:bevel;stroke-dasharray:none;stroke-opacity:1"
       d="m 82.585893,-72.437393 c 0,50.335629 0.853334,53.46662 -10.860406,53.46662"
       id="path15245" />
    <path
       style="opacity:1;fill:none;fill-opacity:1;stroke:#f69600;stroke-width:8;stroke-linecap:butt;stroke-linejoin:bevel;stroke-dasharray:none;stroke-opacity:1"
       d="m 71.725487,-18.970773 c -11.71374,0 -11.631561,-10.988474 -4.755446,-15.487326"
       id="path15247" />
    <path
       style="opacity:1;fill:none;fill-opacity:1;stroke:#f69600;stroke-width:8;stroke-linecap:butt;stroke-linejoin:bevel;stroke-dasharray:none;stroke-opacity:1"
       d="m 147.09856,-83.712537 c 2.81227,-16.593323 0.29863,-21.931273 -3.8738,-21.713893 -6.49692,0.33849 -9.92167,16.711303 -9.92167,16.711303"
       id="path15249" />
    <path
       style="opacity:1;fill:none;fill-opacity:1;stroke:url(#linearGradient440);stroke-width:8;stroke-linecap:butt;stroke-linejoin:bevel;stroke-dasharray:none;stroke-opacity:1"
       d="m 169.4236,-69.767078 21.99823,0.01678"
       id="path432" />
    <path
       style="opacity:1;fill:none;fill-opacity:1;stroke:url(#linearGradient438);stroke-width:7.99999;stroke-linecap:butt;stroke-linejoin:bevel;stroke-dasharray:none;stroke-opacity:1"
       id="path434"
       d="m 28.818653,187.79871 a 13.777987,13.777987 0 0 1 -16.306858,1.58845 13.777987,13.777987 0 0 1 -6.296101,-15.126 13.777987,13.777987 0 0 1 12.617775,-10.45125 13.777987,13.777987 0 0 1 13.689251,9.00229"
       transform="rotate(-101.979)" />
    <path
       style="opacity:1;fill:none;fill-opacity:1;stroke:#f69600;stroke-width:8;stroke-linecap:butt;stroke-linejoin:bevel;stroke-dasharray:none;stroke-opacity:1"
       id="path436"
       d="m 155.82448,-55.997219 a 13.777987,13.777987 0 0 1 8.75598,-12.830135 13.777987,13.777987 0 0 1 15.139,3.477096 13.777987,13.777987 0 0 1 2.2802,15.364902" />
    <path
       style="opacity:1;fill:none;fill-opacity:1;stroke:#f69600;stroke-width:8;stroke-linecap:butt;stroke-linejoin:round;stroke-dasharray:none;stroke-opacity:1"
       d="m 133.39047,-89.239388 c -1.81581,9.90441 -2.34118,29.403341 4.34937,40.37364 3.00384,5.283366 10.44735,5.887918 10.44735,5.887918 0,0 3.60307,0.138297 7.63381,0 0,-4.298222 0,-13.060889 0,-13.060889"
       id="path15241" />
    <path
       style="opacity:1;fill:none;fill-opacity:1;stroke:url(#linearGradient1243);stroke-width:8;stroke-linecap:butt;stroke-linejoin:bevel;stroke-dasharray:none;stroke-opacity:1"
       d="m 185.30926,-69.760391 13.09047,-0.0012"
       id="path1223" />
    <path
       style="opacity:1;fill:none;fill-opacity:1;stroke:url(#linearGradient1241);stroke-width:8;stroke-linecap:butt;stroke-linejoin:bevel;stroke-dasharray:none;stroke-opacity:1"
       d="m 196.04087,-69.17568 c 10.02006,0 12.56759,-5.454674 14.15189,-14.577758"
       id="path1225" />
    <path
       style="opacity:1;fill:none;fill-opacity:1;stroke:#f69600;stroke-width:8;stroke-linecap:butt;stroke-linejoin:bevel;stroke-dasharray:none;stroke-opacity:1"
       d="m 210.19487,-83.712537 c 2.81227,-16.593323 0.29863,-21.931273 -3.8738,-21.713893 -6.49692,0.33849 -9.92167,16.711303 -9.92167,16.711303"
       id="path1227" />
    <path
       style="opacity:1;fill:none;fill-opacity:1;stroke:url(#linearGradient1239);stroke-width:8;stroke-linecap:butt;stroke-linejoin:bevel;stroke-dasharray:none;stroke-opacity:1"
       d="m 232.51991,-69.767078 26.6292,0.01678"
       id="path1229" />
    <path
       style="opacity:1;fill:none;fill-opacity:1;stroke:url(#linearGradient1237);stroke-width:7.99999;stroke-linecap:butt;stroke-linejoin:bevel;stroke-dasharray:none;stroke-opacity:1"
       id="path1231"
       d="m 15.722814,249.52102 a 13.777987,13.777987 0 0 1 -16.30685733,1.58844 13.777987,13.777987 0 0 1 -6.29610077,-15.126 13.777987,13.777987 0 0 1 12.6177753,-10.45124 13.777987,13.777987 0 0 1 13.6892508,9.00229"
       transform="rotate(-101.979)" />
    <path
       style="opacity:1;fill:none;fill-opacity:1;stroke:#f69600;stroke-width:8;stroke-linecap:butt;stroke-linejoin:bevel;stroke-dasharray:none;stroke-opacity:1"
       id="path1233"
       d="m 218.92077,-55.997219 a 13.777987,13.777987 0 0 1 8.75598,-12.830135 13.777987,13.777987 0 0 1 15.13901,3.477096 13.777987,13.777987 0 0 1 2.28019,15.364902" />
    <path
       style="opacity:1;fill:none;fill-opacity:1;stroke:#f69600;stroke-width:8;stroke-linecap:butt;stroke-linejoin:round;stroke-dasharray:none;stroke-opacity:1"
       d="m 196.48678,-89.239388 c -1.81581,9.90441 -2.34118,29.403341 4.34937,40.37364 3.00384,5.283366 10.44735,5.887918 10.44735,5.887918 0,0 3.60307,0.138297 7.63381,0 0,-4.298222 0,-13.060889 0,-13.060889"
       id="path1235" />
  </g>
</svg>
